<?xml version="1.0" encoding="UTF-8"?>
<svg width="16mm" height="16mm" version="1.1" viewBox="0 0 16 16" xmlns="http://www.w3.org/2000/svg" xmlns:cc="http://creativecommons.org/ns#" xmlns:dc="http://purl.org/dc/elements/1.1/" xmlns:rdf="http://www.w3.org/1999/02/22-rdf-syntax-ns#" xmlns:xlink="http://www.w3.org/1999/xlink">
 <defs>
  <clipPath id="clipPath4629">
   <use width="100%" height="100%" xlink:href="#g4625"/>
  </clipPath>
 </defs>
 <metadata>
  <rdf:RDF>
   <cc:Work rdf:about="">
    <dc:format>image/svg+xml</dc:format>
    <dc:type rdf:resource="http://purl.org/dc/dcmitype/StillImage"/>
    <dc:title/>
   </cc:Work>
  </rdf:RDF>
 </metadata>
 <g transform="matrix(.061732 0 0 .061732 -41.215 -5.1894)" clip-path="url(#clipPath4629)">
  <g id="g4625">
   <path transform="translate(-178.96 -75.574)" d="m944.88 210.78c-1.953 0.417-3.14 1.591-5.11 0-0.368-0.297 0.194-0.686-0.426-0.852-1.589-0.425-4.986-8.167-6.388-11.074-1.142-2.37-1.676-3.284-2.558-6.39-0.825-2.902-2.744-5.538-4.261-8.094-0.945-1.596-1.47-3.703-2.98-4.26-0.709-3.691-2.138-6.663-3.833-9.371 0.958-1.88 4.01-1.669 5.538-2.981 0.686-0.121 0.733 0.402 1.275 0.426 3.843 12.927 11.564 22.56 15.763 35.354 0.834 2.545 2.68 4.712 2.98 7.242z" clip-rule="evenodd" fill="#fff" fill-rule="evenodd"/>
   <path transform="translate(-178.96 -75.574)" d="m952.55 209.5c0.657-1.473 0.378-3.881 0.426-5.961 2.003-3.255 2.816-7.692 5.112-10.649 4.928-3.85 8.896-8.061 15.761-10.649 10.341-3.897 24.446-1.444 34.502 4.259 4.364 4.039 7.669 8.799 8.944 15.76 1.146 6.266 0.454 15.235-2.555 20.446-9.905-3.592-22.145-0.048-28.966 2.557-0.922 0.072-0.193-1.511-0.426-2.129-3.622-1.175-5.225-5.995-8.094-7.244-0.622-0.271-1.688 0.05-0.854-0.425-6.921-3.661-13.268-7.102-23.85-5.965zm28.54-22.574c2.9 0.935 5.813 0.821 6.815-2.13-1.699-2.441-6.849-0.985-6.815 2.13zm-12.352 2.983c0.735 0.681 1.551 1.29 1.277 2.981 1.693-1.288 2.722-3.242 2.981-5.964-2.378-0.869-3.908 0.658-4.258 2.983zm17.89 1.277c-2.853 1.837-7.856 1.516-8.093 5.964 3.71 2.106 7.691-1.628 10.22-3.409-0.232 2e-3 -0.481-0.343 0-0.426 0.235-1.652-1.838-1-2.127-2.129z" clip-rule="evenodd" fill="#fff" fill-rule="evenodd"/>
   <path transform="translate(-178.96 -75.574)" d="m987.9 184.79c-1.002 2.951-3.915 3.065-6.815 2.13-0.034-3.115 5.116-4.571 6.815-2.13z" clip-rule="evenodd" fill-rule="evenodd"/>
   <path transform="translate(-178.96 -75.574)" d="m973 186.92c-0.26 2.722-1.288 4.677-2.981 5.964 0.273-1.691-0.542-2.3-1.277-2.981 0.349-2.325 1.879-3.852 4.258-2.983z" clip-rule="evenodd" fill-rule="evenodd"/>
   <path transform="translate(-178.96 -75.574)" d="m988.76 193.31c-0.481 0.083-0.232 0.428 0 0.426-2.528 1.781-6.51 5.515-10.22 3.409 0.236-4.448 5.24-4.127 8.093-5.964 0.289 1.129 2.362 0.477 2.127 2.129z" clip-rule="evenodd" fill-rule="evenodd"/>
   <path transform="translate(-178.96 -75.574)" d="m939.35 223.56c0.13 1.29 1.317 1.521 0.852 3.407-2.186 0.744-3.636 3.708-5.962 2.983-0.368-0.345-0.253-1.168-0.852-1.278 1.154-2.537 2.29-5.092 5.962-5.112zm-2.13 3.407c0.731 0.024 1.091-0.328 1.278-0.851-0.669 0.041-1.476-0.057-1.278 0.851z" clip-rule="evenodd" fill-rule="evenodd"/>
   <path transform="translate(-178.96 -75.574)" d="m938.5 226.11c-0.188 0.522-0.547 0.875-1.278 0.851-0.198-0.908 0.609-0.81 1.278-0.851z" clip-rule="evenodd" fill="#fff" fill-rule="evenodd"/>
   <path transform="translate(-178.96 -75.574)" d="m1002.8 231.22c-0.796 0.757 0.348 1.083 0 2.555-2.146 1.261-3.556 3.261-7.668 2.556-1.291-4.295 4.813-5.982 7.668-5.111z" clip-rule="evenodd" fill-rule="evenodd"/>
   <path transform="translate(-178.96 -75.574)" d="m988.33 232.93c1.149 1.318-1.285 2.641-0.424 3.407-1.689 0.631-3.214 2.292-4.687 0.853 0.057-3.068 2.015-4.234 5.111-4.26z" clip-rule="evenodd" fill-rule="evenodd"/>
   <path transform="translate(-178.96 -75.574)" d="m994.72 239.74c-0.705 1.502-2.045 1.416-2.555 3.834-0.675 0.034-1.623-0.207-1.703 0.426-0.433-0.278-0.442-0.979-1.28-0.852-0.088-0.729 0.728-1.105 0-1.278 1.592-1.184 3.132-2.951 5.538-2.13z" clip-rule="evenodd" fill-rule="evenodd"/>
   <path transform="translate(-178.96 -75.574)" d="m1031.4 252.1c-0.384 7.795-5.688 19.736-5.538 28.111-3.941-4.266-6.45-6.495-10.65-10.649 0.922-2.481 2.953-5.245 4.261-7.666 0.976-1.811 0.739-2.853 2.129-3.834 2.986-2.101 6.991-3.506 9.798-5.962z" clip-rule="evenodd" fill="#fff" fill-rule="evenodd"/>
   <path transform="translate(-178.96 -75.574)" d="m1016.4 260.19c0.374 2.225-2.218 5.158-2.979 7.668-2.164-0.678-3.152-2.53-5.112-3.409 2.335-1.783 6.338-1.897 8.091-4.259z" clip-rule="evenodd" fill="#fff" fill-rule="evenodd"/>
   <path transform="translate(-178.96 -75.574)" d="m1011.3 269.98c-2.919 3.754-5.506 7.84-8.091 11.926-3.489-3.185-7.003-6.343-10.65-9.371 0.924-5.464 7.207-5.572 11.928-7.242 2.412 1.422 4.5 3.167 6.813 4.687z" clip-rule="evenodd" fill="#fff" fill-rule="evenodd"/>
   <path transform="translate(-178.96 -75.574)" d="m988.76 272.11c-1.813 4.147-4.128 7.796-7.239 10.649-0.659 2.325-2.026 3.936-3.833 5.112-2.613-1.647-3.477-5.041-6.817-5.964 0.332-2.4-3.343-4.259-5.11-5.964-0.122-0.688 0.404-0.733 0.426-1.276-0.13-0.58-1.066-0.354-1.703-0.428 0.633-1.211 1.581-2.108 2.129-3.406 8.822 1.085 17.418-2.916 22.147 1.277z" clip-rule="evenodd" fill="#fff" fill-rule="evenodd"/>
   <path transform="translate(-178.96 -75.574)" d="m949.57 292.13c-4.189-3.103-6.277-5.68-9.794-9.37 2.969-3.846 4.353-9.277 8.093-12.352h8.52c0.098 2.184 4.78 2.588 5.11 4.685 0.04 0.249-2.184 4.471-2.983 5.536-0.92 1.231-2.311 1.433-3.405 2.983-0.289 0.406-0.12 0.923-0.426 1.276-0.759 0.873-1.918 3.748-2.555 4.686-0.502 0.739-2.562 1.478-2.56 2.556z" clip-rule="evenodd" fill="#fff" fill-rule="evenodd"/>
   <path transform="translate(-178.96 -75.574)" d="m990.46 275.95c4.121 2.693 6.98 6.65 10.222 10.224-0.662 3.171-3.095 4.573-3.832 7.667-6.253 1.498-11.988 1.856-14.909-2.129-0.31-1.844 2.233-4.214 3.833-5.537-0.036-0.675 0.207-1.626-0.426-1.705 1.832-2.715 3.219-5.866 5.112-8.52z" clip-rule="evenodd" fill="#fff" fill-rule="evenodd"/>
   <path transform="translate(-178.96 -75.574)" d="m963.63 278.93c3.811 4.141 7.509 8.392 11.5 12.352-0.9 2.082-2.64 3.324-3.835 5.11-6.348 0.151-11.612 0.951-17.036 0.428 0.813-3.589 2.013-6.791 5.11-8.093 0.277-2.564 2.525-5.313 4.687-7.241-0.49-0.504-0.483-1.507-0.426-2.556z" clip-rule="evenodd" fill="#fff" fill-rule="evenodd"/>
   <path transform="translate(-178.96 -75.574)" d="m937.22 285.75c3.472 3.415 7.583 6.739 9.371 10.646-2.535-0.599-8.975-0.184-11.928-1.701-2.001 0.395-1.133 0.884-2.983 0 1.26-3.57 4.086-5.574 5.54-8.945z" clip-rule="evenodd" fill="#fff" fill-rule="evenodd"/>
   <path transform="translate(-178.96 -75.574)" d="m1010.5 345.8c-0.468 1.378-1.237 2.455-1.703 3.833-1.123-0.864-2.64-1.335-2.981-2.981 2.023 0.178 3.071-0.618 4.684-0.852z" clip-rule="evenodd" fill="#fff" fill-rule="evenodd"/>
   <path transform="translate(-178.96 -75.574)" d="m952.98 346.23c1.002 0.134 1.599 0.674 2.983 0.426 1.23 3.026 6.101 2.418 6.813 5.964-1.6 1.859-4.628 3.413-4.685 5.536-1.658-4.018-3.612-7.746-5.111-11.926z" clip-rule="evenodd" fill="#fff" fill-rule="evenodd"/>
   <path transform="translate(-178.96 -75.574)" d="m1006.6 353.47c-1.77 3.058-3.523 6.132-5.109 9.371-3.763-1.917-6.041-5.317-9.371-7.667 1.382-3.022 3.3-5.503 5.536-7.668 2.763 0.756 5.798 4.243 8.944 5.964z" clip-rule="evenodd" fill="#fff" fill-rule="evenodd"/>
   <path transform="translate(-178.96 -75.574)" d="m986.2 354.75c-1.015 3.529-3.594 5.495-5.11 8.519-5.01-3.792-8.734-8.869-13.205-13.205 1.199-3.407 8.442-0.849 11.076-1.702 3.039 1.502 5.014 4.07 7.239 6.388z" clip-rule="evenodd" fill="#fff" fill-rule="evenodd"/>
   <path transform="translate(-178.96 -75.574)" d="m1009.2 353.47c1.11 0.307 1.304 1.534 2.553 1.705-1.076 5.294-1.004 9.41-2.553 14.482-2.731-1.386-4.747-3.489-6.392-5.964 3.365-3.119 4.203-6.237 6.392-10.223z" clip-rule="evenodd" fill="#fff" fill-rule="evenodd"/>
   <path transform="translate(-178.96 -75.574)" d="m978.54 366.25c-1.724 2.744-3.506 7.291-5.112 8.945-0.891 0.914-1.688 0.232-1.706 1.276-3.146-0.314-3.184-4.272-6.813-3.407-1.876-4.8-4.563-8.784-6.392-13.63 3.425-0.412 3.313-4.359 5.966-5.538 5.136 3.667 8.74 8.866 14.057 12.354z" clip-rule="evenodd" fill="#fff" fill-rule="evenodd"/>
   <path transform="translate(-178.96 -75.574)" d="m989.18 358.58c3.938 2.028 6.68 5.25 9.371 8.519-1.319 3.364-3.445 5.925-5.536 8.52-3.704-2.117-6.331-5.311-8.945-8.52 1.814-3.079 3.783-5.566 5.11-8.519z" clip-rule="evenodd" fill="#fff" fill-rule="evenodd"/>
   <path transform="translate(-178.96 -75.574)" d="m1000.3 368.8c3.574 2.154 4.924 5.021 7.666 7.24-1.021 3.524-3.58 5.509-5.538 8.094-3.852-0.551-4.396-4.409-7.242-5.964 0.962-3.866 3.917-5.737 5.114-9.37z" clip-rule="evenodd" fill="#fff" fill-rule="evenodd"/>
   <path transform="translate(-178.96 -75.574)" d="m981.52 370.51c3.991 1.828 6.295 5.345 9.797 7.667-1.72 2.966-4.17 5.2-5.964 8.094-3.146-3.672-8.356-5.276-11.5-8.945 1.906-2.923 5.975-3.683 7.667-6.816z" clip-rule="evenodd" fill="#fff" fill-rule="evenodd"/>
   <path transform="translate(-178.96 -75.574)" d="m966.18 376.47c1.473-1.026 2.451 2.078 4.259 2.13-0.5 0.918-0.924 1.915-2.129 2.129-0.171-1.958-1.049-3.209-2.13-4.259z" clip-rule="evenodd" fill="#fff" fill-rule="evenodd"/>
   <path transform="translate(-178.96 -75.574)" d="m993.02 379.88c-0.192 1.252 7.479 5.34 7.667 6.814 0.209 1.644-4.718 5.139-5.538 6.815-2.842-1.986-6.068-3.586-7.665-6.815 2.386-1.729 3.682-4.552 5.536-6.814z" clip-rule="evenodd" fill="#fff" fill-rule="evenodd"/>
   <path transform="translate(-178.96 -75.574)" d="m982.79 388.82c0.253 2.329-1.802 2.772-2.557 3.832-0.101 0.142 0.643 0.675 0.426 0.854-0.896 0.744-2.272 2.168-3.407 3.406-3.41-3.542-5.219-8.693-7.665-13.204 0.701-1 1.906-1.5 2.127-2.981 4.49 1.899 7.252 5.526 11.076 8.093z" clip-rule="evenodd" fill="#fff" fill-rule="evenodd"/>
   <path transform="translate(-178.96 -75.574)" d="m926.57 163.07c2.138 2.266 4.426 4.377 4.685 8.519 2.433-0.011 2.575 0.328 4.687 0 5.667 5.196 7.539 16.131 10.65 23.852 0.825 2.052 2.431 3.73 2.553 5.964 2.431-4.123 4.122-8.159 5.966-11.926 5.285-5.62 12.308-9.922 21.723-12.779 0.522-0.158 1.18 0.146 1.706 0 0.949-0.264 1.106-0.827 2.555-0.853 1.315-0.024 2.734 0.734 4.259 0.853 3.604 0.28 7.896-0.514 11.502 0 4.111 0.586 8.822 3.797 12.354 6.39 2.762 2.03 5.554 4.568 7.237 6.39 0.982 1.058 1.802 4.013 3.409 5.111 2.815 10.323 4.455 20.976-0.852 29.39 4.586 2.23 8.731 4.896 13.205 7.241-0.54 1.602 1.918 2.019 2.98 3.409 1.047 1.368 0.975 3.489 2.556 4.26-0.521 2.811 0.099 7.347-2.127 10.221 0.681 2.881-0.097 4.164 0.426 5.964-2.799 9.892-5.857 19.929-7.244 30.669-1.33 10.321-3.712 20.684-5.536 31.092-0.803 4.574-2.728 8.879-3.408 13.632-0.752 5.241-1.053 10.608-1.702 16.186-0.656 0.48-1.052 1.222-1.707 1.705-2.689 17.116-4.863 36.637-8.945 51.112-2.205 1.787-3.883 5.688-5.961 8.519-0.693 0.942-1.366 2.488-2.13 3.409-0.237 0.285-1.357 0.473-1.705 0.851-0.92 1.005-0.929 2.009-2.556 2.555-2.281 0.773-6.954 0.823-9.796 0-4.044-1.17-4.399-5.006-8.094-7.241-6.468-10.171-11.813-21.819-17.462-33.224-0.635-1.277-1.753-2.653-2.131-3.832-0.475-1.479-0.061-3.261-0.426-4.687-0.944-3.676-2.935-6.5-5.11-9.371 0.382-1.245 0.382-1.309 0-2.555-4.104-7.829-7.591-17.11-12.779-25.984-3.782-6.467-6.714-13.419-9.371-20.871-0.795-2.223-0.795-4.705-2.555-6.389-0.235-0.945 0.813-0.605 0.85-1.276-3.084-5.36-5.359-11.629-7.665-17.465-1.051-2.659-1.889-4.45-2.558-8.093-0.235-1.286-1.398-2.94-1.701-4.686-0.661-3.787 1.093-7.004 0-9.796h1.701c-2.318-3.832-3.491-11.099-2.979-18.743 0.343-5.158 1.05-8.924 3.406-12.777 3.367-5.514 11.553-10.667 17.462-14.057-1.667-5.53-6.817-11.974-10.223-19.592-1.549-3.472-2.535-7.405-4.258-10.649-2.469-4.648-6.599-8.506-6.816-14.483-0.141-3.864 7.32-6.243 11.925-5.965zm49.835 52.391c-0.834 0.475 0.231 0.154 0.854 0.425 2.869 1.249 4.472 6.068 8.094 7.244 0.232 0.619-0.496 2.202 0.426 2.129 6.821-2.605 19.061-6.149 28.966-2.557 3.009-5.211 3.7-14.18 2.555-20.446-1.275-6.96-4.58-11.721-8.944-15.76-10.056-5.704-24.161-8.156-34.502-4.259-6.864 2.588-10.833 6.799-15.761 10.649-2.296 2.957-3.109 7.394-5.112 10.649-0.048 2.08 0.231 4.488-0.426 5.961 10.581-1.137 16.928 2.304 23.85 5.965zm-34.498-11.926c-4.198-12.794-11.92-22.427-15.763-35.354-0.542-0.024-0.59-0.546-1.275-0.426-1.528 1.312-4.58 1.101-5.538 2.981 1.695 2.708 3.124 5.68 3.833 9.371 1.511 0.557 2.035 2.664 2.98 4.26 1.517 2.556 3.436 5.191 4.261 8.094 0.882 3.106 1.416 4.021 2.558 6.39 1.401 2.906 4.799 10.649 6.388 11.074 0.62 0.166 0.058 0.555 0.426 0.852 1.971 1.591 3.157 0.417 5.11 0-0.3-2.531-2.146-4.698-2.98-7.242zm-4.686-21.724c-0.202-1.459-1.018-3.545-2.131-5.111 0.235 2.178 0.612 4.216 2.131 5.111zm9.371 22.149c0.374 1.854-0.367 2.358 0.852 2.981 0.416-3.94-2.722-8.408-4.685-12.776-1.633-3.633-2.661-7.365-5.112-9.798 2.089 7.422 5.49 13.536 8.945 19.593zm31.095 19.169c-1.783-2.052-3.541-4.13-5.112-6.39-6.038-2.445-12.932-3.689-18.743-2.555-4.048 0.788-13.852 4.293-15.759 5.961-2.458 2.152-5.778 3.418-8.519 4.686-7.862 4.638-14.224 22.704-8.093 34.078 2.139 0.129 2.77 1.771 3.834 2.98 7.6 0.243 17.091 5.067 26.835 2.555 1.462-0.187 2.387 0.169 3.407 0.426-1.796-20.226 11.156-30.129 25.129-38.761-2.385 0.395-2.579-1.394-3.833-2.13 0.521-0.047 1.011-0.127 0.854-0.85zm7.24 41.316c2.061-0.173 4.003 0.232 5.964 0 5.221-0.621 9.567-2.659 14.482-3.407 2.445-2.179 5.127-3.181 9.795-4.688 4.772-3.888 12.281-5.041 16.188-9.795 0.865-6.854-4.407-11.197-7.241-15.76-11.262-7.718-29.332-7.245-41.742-0.425-8.842 4.856-14.125 7.422-18.317 15.759-1.228 2.44-3.552 7.481-3.833 9.371-0.337 2.223 0.792 7.562 0.852 10.649 9.304 1.027 16.417-1.076 23.852-1.704zm36.631-6.39c-1.39 0.981-1.153 2.024-2.129 3.834-1.308 2.421-3.339 5.185-4.261 7.666 4.2 4.154 6.709 6.384 10.65 10.649-0.15-8.375 5.154-20.316 5.538-28.111-2.806 2.456-6.811 3.861-9.798 5.962zm-13.203 6.39c1.96 0.879 2.948 2.731 5.112 3.409 0.761-2.51 3.353-5.444 2.979-7.668-1.754 2.362-5.757 2.476-8.091 4.259zm-77.524 9.796c2.518 0.925 5.012 4.689 6.815 6.815 2.905-3.059 5.135-6.792 6.814-11.073-5.432 0.07-13.431-2.551-20.871-4.687 0.055 0.766-0.424 0.999-1.279 0.854 1.838 7.872 4.037 15.907 7.243 23 0.257 0.571 0.076 2.175 1.277 2.13 1.621-2.497 3.813-4.422 5.11-7.241-2.651-2.459-5.588-4.631-6.388-8.945-2.053-2.065-4.17-4.064-5.964-6.39 3.473-2.652 6.27 4.273 7.243 5.537zm73.691-8.945c-4.721 1.67-11.004 1.778-11.928 7.242 3.647 3.027 7.161 6.186 10.65 9.371 2.585-4.085 5.172-8.171 8.091-11.926-2.313-1.52-4.401-3.265-6.813-4.687zm-15.337 4.259c1.382-0.525 0.326 1.379 1.706 0.854 0.57-0.28 0.791-0.912 0.852-1.705-1.224-0.089-2.165 0.109-2.558 0.851zm-22.575 1.28c-0.548 1.297-1.496 2.194-2.129 3.406 0.637 0.074 1.573-0.152 1.703 0.428-0.021 0.543-0.548 0.588-0.426 1.276 1.768 1.705 5.442 3.563 5.11 5.964 3.341 0.923 4.204 4.317 6.817 5.964 1.807-1.176 3.174-2.787 3.833-5.112 3.111-2.854 5.426-6.502 7.239-10.649-4.727-4.194-13.323-0.193-22.147-1.277zm-14.48 18.74c0.637-0.938 1.796-3.813 2.555-4.686 0.306-0.354 0.137-0.871 0.426-1.276 1.095-1.55 2.485-1.751 3.405-2.983 0.8-1.065 3.023-5.287 2.983-5.536-0.33-2.097-5.013-2.501-5.11-4.685h-8.52c-3.74 3.074-5.124 8.506-8.093 12.352 3.517 3.69 5.604 6.267 9.794 9.37-2e-3 -1.079 2.058-1.818 2.56-2.556zm9.795-17.037c1.199-0.08 1.815-0.742 1.705-2.129-1.019 0.258-3.09-0.537-3.407 0.426 1.081 0.052 1.649 0.619 1.702 1.703zm50.687 1.278c-2.055 4.568-3.689 7.085-5.964 11.928 2.067 0.775 3.854 1.828 4.687 3.832 1.593-0.037 1.216-0.477 2.558 0 0.945-1.114 2.452-1.861 3.832-2.555 1.288-0.646 2.778-1.34 3.409-1.704 1.659-0.962 3.788-1.318 4.685-2.555-0.097-0.609-2.121 0.395-3.407 0-2.393-3.713-6.597-5.615-8.944-9.371-0.733 0.167-1.095-0.631-1.278 0 0.256 0.023 0.502 0.062 0.422 0.425zm-27.259 10.648c0.633 0.079 0.39 1.03 0.426 1.705-1.6 1.323-4.143 3.693-3.833 5.537 2.921 3.985 8.656 3.627 14.909 2.129 0.737-3.094 3.17-4.496 3.832-7.667-3.241-3.574-6.101-7.531-10.222-10.224-1.893 2.655-3.28 5.806-5.112 8.52zm-21.297-2.98c-2.161 1.928-4.409 4.676-4.687 7.241-3.098 1.303-4.297 4.504-5.11 8.093 5.424 0.523 10.688-0.277 17.036-0.428 1.195-1.786 2.935-3.028 3.835-5.11-3.991-3.96-7.689-8.211-11.5-12.352-0.057 1.049-0.064 2.052 0.426 2.556zm-32.375 13.204c1.851 0.884 0.982 0.395 2.983 0 2.953 1.518 9.393 1.103 11.928 1.701-1.788-3.907-5.899-7.231-9.371-10.646-1.454 3.372-4.28 5.376-5.54 8.945zm91.582-6.815c-3.005 1.639-6.283 3.728-9.796 5.111-4.273 1.681-10.982 2.06-12.354 4.26-7.036-0.295-14.047 1.902-21.724 2.555-6 0.51-13.017-0.858-19.592 0-0.622 0.08-1.585-0.167-2.131 0.852-6.541-1.349-16.462-1.264-24.277-2.556 6.506 15.155 11.489 27.419 17.464 43.448 8.427 0.708 19.382 2.539 28.112 2.13 6.669-0.314 12.518-0.838 17.89-1.705 3.22-0.521 6.508-0.59 8.944-1.278 1.063-0.299 1.642-1.37 2.556-1.705 0.918-0.334 2.42-0.114 3.406-0.426 1.271-0.399 2.149-1.305 3.407-1.276 2.766-12.064 2.398-22.325 5.538-34.077 1.036-3.876 5.928-12.914 2.982-15.333h-0.425zm-20.446 4.257c1.319 0.044 2.364-0.191 2.982-0.851-1.342 0.206-0.964-1.307-2.555-0.851 0.092 0.806-0.48 0.941-0.427 1.702zm-25.13 4.26h1.278v-0.851h-1.278v0.851zm27.26 47.708c0.758-0.237 1.768-0.22 2.127-0.854-0.802 0.189-2.564-0.579-2.127 0.854zm0.852 2.555c0.342 1.646 1.858 2.117 2.981 2.981 0.466-1.379 1.235-2.456 1.703-3.833-1.613 0.234-2.661 1.03-4.684 0.852zm-47.707 11.5c0.057-2.123 3.085-3.677 4.685-5.536-0.713-3.545-5.583-2.938-6.813-5.964-1.385 0.248-1.981-0.292-2.983-0.426 1.498 4.18 3.452 7.908 5.111 11.926zm52.391-5.536c2.889 0.321 2.927-4.446 2.556-5.964-0.553 1.798-2.681 3.699-2.556 5.964zm-45.15-4.259h0.852v-0.854h-0.852v0.854zm20.445 0c0.918 1.07 2.239 1.734 3.406 2.555-0.341-1.762 1.549-1.293 1.28-2.983-0.987-0.23-3.446-0.275-4.686 0.428zm11.926-0.854c-2.236 2.166-4.154 4.646-5.536 7.668 3.33 2.349 5.608 5.749 9.371 7.667 1.586-3.239 3.34-6.313 5.109-9.371-3.145-1.721-6.18-5.208-8.944-5.964zm-18.739 0.854c-2.634 0.854-9.877-1.705-11.076 1.702 4.471 4.336 8.195 9.412 13.205 13.205 1.517-3.024 4.096-4.99 5.11-8.519-2.225-2.318-4.2-4.886-7.239-6.388zm23.852 15.332c1.645 2.475 3.66 4.578 6.392 5.964 1.549-5.072 1.477-9.188 2.553-14.482-1.249-0.171-1.442-1.398-2.553-1.705-2.19 3.987-3.028 7.105-6.392 10.223zm-38.335-9.796c-2.653 1.179-2.541 5.126-5.966 5.538 1.828 4.846 4.516 8.831 6.392 13.63 3.63-0.866 3.668 3.092 6.813 3.407 0.019-1.044 0.815-0.362 1.706-1.276 1.606-1.654 3.389-6.201 5.112-8.945-5.317-3.488-8.921-8.687-14.057-12.354zm19.592 13.204c2.614 3.209 5.241 6.403 8.945 8.52 2.091-2.595 4.217-5.156 5.536-8.52-2.691-3.269-5.434-6.491-9.371-8.519-1.326 2.953-3.295 5.44-5.11 8.519zm11.075 11.075c2.847 1.555 3.391 5.413 7.242 5.964 1.958-2.585 4.518-4.57 5.538-8.094-2.742-2.219-4.092-5.086-7.666-7.24-1.197 3.633-4.152 5.504-5.114 9.37zm-21.296-0.85c3.144 3.669 8.354 5.273 11.5 8.945 1.794-2.895 4.244-5.128 5.964-8.094-3.502-2.321-5.806-5.838-9.797-7.667-1.692 3.133-5.761 3.893-7.667 6.816zm35.355-5.539c-0.261-0.024-0.506-0.063-0.428-0.426 0.234 3e-3 0.483-0.344 0-0.425-0.853 0.376-0.112 2.164 0.428 0.851zm-40.893 8.944c1.205-0.215 1.629-1.211 2.129-2.129-1.808-0.052-2.786-3.157-4.259-2.13 1.081 1.05 1.959 2.301 2.13 4.259zm19.168 5.964c1.597 3.229 4.823 4.829 7.665 6.815 0.82-1.676 5.747-5.171 5.538-6.815-0.188-1.475-7.859-5.563-7.667-6.814-1.853 2.262-3.149 5.085-5.536 6.814zm-15.762-5.964c-0.221 1.48-1.426 1.98-2.127 2.981 2.446 4.511 4.255 9.662 7.665 13.204 1.135-1.237 2.511-2.662 3.407-3.406 0.217-0.179-0.526-0.712-0.426-0.854 0.755-1.06 2.81-1.502 2.557-3.832-3.824-2.565-6.586-6.192-11.076-8.093zm31.947 5.964c1.312-0.316 0.819 1.168 2.131 0.852 0.038-1.837 0.729-3.276 0-3.834-0.601 1.104-1.442 1.967-2.131 2.982zm-2.556 13.631c1.398-3.146 2.755-6.333 3.835-9.798-1.013-0.693-1.729-1.678-2.982-2.128-2.853 3.734-7.206 9.825-0.853 11.926zm-10.221 10.649c1.306-0.165 4.341-2.216 5.538-3.409 1.205-1.202 1.719-3.59 2.98-4.684-1.277-1.848-3.638-2.61-5.112-4.261-3.364 3.337-5.779 7.306-8.519 10.225-1.019-1.106-1.009-1.968-1.277-2.984 1.508 0.233 1.048-1.506 2.557-1.276 0.408-3.992 4.542-4.259 5.536-7.668-3.018-1.665-4.894-4.476-7.667-6.389-1.308 3.944-4.896 5.614-5.962 9.798 4.28 3.364 5.242 11.49 11.926 10.648z" clip-rule="evenodd" fill-rule="evenodd"/>
   <path transform="translate(-178.96 -75.574)" d="m937.64 184.37c2.451 2.433 3.479 6.166 5.112 9.798 1.963 4.368 5.101 8.836 4.685 12.776-1.219-0.623-0.478-1.127-0.852-2.981-3.455-6.056-6.856-12.17-8.945-19.593z" clip-rule="evenodd" fill="#fff" fill-rule="evenodd"/>
   <path transform="translate(-178.96 -75.574)" d="m923.59 268.71c1.794 2.325 3.911 4.325 5.964 6.39 0.8 4.314 3.736 6.485 6.388 8.945-1.298 2.818-3.489 4.744-5.11 7.241-1.201 0.045-1.021-1.559-1.277-2.13-3.206-7.093-5.405-15.128-7.243-23 0.855 0.146 1.334-0.087 1.279-0.854 7.44 2.136 15.439 4.757 20.871 4.687-1.68 4.282-3.909 8.014-6.814 11.073-1.804-2.126-4.298-5.891-6.815-6.815-0.975-1.265-3.772-8.19-7.243-5.537z" clip-rule="evenodd" fill="#fff" fill-rule="evenodd"/>
   <path transform="translate(-178.96 -75.574)" d="m1012.2 273.39c0.184-0.631 0.545 0.167 1.278 0 2.348 3.756 6.552 5.658 8.944 9.371 1.286 0.395 3.311-0.609 3.407 0-0.896 1.237-3.025 1.593-4.685 2.555-0.631 0.364-2.121 1.058-3.409 1.704-1.38 0.694-2.887 1.441-3.832 2.555-1.342-0.477-0.965-0.037-2.558 0-0.833-2.004-2.619-3.056-4.687-3.832 2.274-4.842 3.909-7.36 5.964-11.928 0.081-0.362-0.165-0.401-0.422-0.425z" clip-rule="evenodd" fill="#fff" fill-rule="evenodd"/>
   <path transform="translate(-178.96 -75.574)" d="m978.96 400.32c1.066-4.184 4.654-5.854 5.962-9.798 2.773 1.913 4.649 4.724 7.667 6.389-0.994 3.409-5.128 3.676-5.536 7.668-1.509-0.23-1.049 1.51-2.557 1.276 0.269 1.017 0.259 1.878 1.277 2.984 2.739-2.919 5.154-6.887 8.519-10.225 1.475 1.65 3.835 2.413 5.112 4.261-1.262 1.094-1.775 3.482-2.98 4.684-1.197 1.192-4.232 3.244-5.538 3.409-6.684 0.843-7.646-7.283-11.926-10.648z" clip-rule="evenodd" fill="#fff" fill-rule="evenodd"/>
   <path transform="translate(-178.96 -75.574)" d="m976.83 223.98c1.254 0.736 1.448 2.525 3.833 2.13-13.973 8.631-26.925 18.535-25.129 38.761-1.021-0.257-1.945-0.613-3.407-0.426-9.744 2.512-19.235-2.312-26.835-2.555-1.064-1.209-1.695-2.851-3.834-2.98-6.131-11.375 0.23-29.44 8.093-34.078 2.74-1.268 6.061-2.533 8.519-4.686 1.907-1.667 11.711-5.173 15.759-5.961 5.812-1.134 12.705 0.11 18.743 2.555 1.571 2.26 3.329 4.338 5.112 6.39 0.157 0.722-0.333 0.802-0.854 0.85zm-43.444 4.685c0.599 0.11 0.483 0.933 0.852 1.278 2.326 0.726 3.776-2.239 5.962-2.983 0.466-1.885-0.722-2.117-0.852-3.407-3.672 0.021-4.808 2.576-5.962 5.112zm11.072 1.705c-2.202 1.979-6.055 5.162-4.259 8.519 5.597 0.219 9.218-6.287 4.259-8.519zm-14.907 5.536c-0.265 1.65-0.352 1.755 0.426 2.983 1.933-0.2 3.122-1.138 3.409-2.983-0.372-0.624-0.639-1.351-1.708-1.276 0.41 1.543-1.836 0.431-2.127 1.276z" clip-rule="evenodd" fill="#fff" fill-rule="evenodd"/>
   <path transform="translate(-178.96 -75.574)" d="m940.2 238.89c-1.796-3.357 2.057-6.54 4.259-8.519 4.959 2.232 1.338 8.738-4.259 8.519z" clip-rule="evenodd" fill-rule="evenodd"/>
   <path transform="translate(-178.96 -75.574)" d="m961.07 266.15c-0.06-3.087-1.188-8.427-0.852-10.649 0.281-1.889 2.605-6.93 3.833-9.371 4.192-8.337 9.476-10.903 18.317-15.759 12.41-6.82 30.48-7.293 41.742 0.425 2.834 4.563 8.106 8.907 7.241 15.76-3.907 4.755-11.416 5.908-16.188 9.795-4.668 1.507-7.35 2.508-9.795 4.688-4.915 0.748-9.262 2.786-14.482 3.407-1.961 0.232-3.903-0.173-5.964 0-7.434 0.628-14.547 2.731-23.852 1.704zm34.075-29.817c4.112 0.705 5.522-1.295 7.668-2.556 0.348-1.472-0.796-1.798 0-2.555-2.855-0.871-8.959 0.816-7.668 5.111zm-11.926 0.853c1.473 1.439 2.997-0.221 4.687-0.853-0.861-0.767 1.573-2.089 0.424-3.407-3.097 0.026-5.055 1.192-5.111 4.26zm5.962 4.685c0.728 0.173-0.088 0.549 0 1.278 0.838-0.127 0.848 0.574 1.28 0.852 0.08-0.633 1.028-0.392 1.703-0.426 0.51-2.418 1.85-2.332 2.555-3.834-2.406-0.821-3.946 0.946-5.538 2.13z" clip-rule="evenodd" fill="#fff" fill-rule="evenodd"/>
   <path transform="translate(-178.96 -75.574)" d="m1023.7 287.88c2.945 2.418-1.946 11.457-2.982 15.333-3.14 11.752-2.772 22.013-5.538 34.077-1.258-0.028-2.136 0.877-3.407 1.276-0.986 0.312-2.488 0.091-3.406 0.426-0.914 0.334-1.493 1.405-2.556 1.705-2.437 0.688-5.725 0.757-8.944 1.278-5.372 0.867-11.221 1.39-17.89 1.705-8.73 0.409-19.686-1.422-28.112-2.13-5.975-16.028-10.958-28.293-17.464-43.448 7.815 1.292 17.736 1.207 24.277 2.556 0.546-1.019 1.509-0.771 2.131-0.852 6.575-0.858 13.592 0.51 19.592 0 7.677-0.653 14.688-2.851 21.724-2.555 1.372-2.2 8.081-2.579 12.354-4.26 3.513-1.383 6.791-3.472 9.796-5.111h0.425z" clip-rule="evenodd" fill="#fff" fill-rule="evenodd"/>
  </g>
 </g>
</svg>
