<?xml version="1.0" encoding="UTF-8"?>
<svg width="16mm" height="16mm" version="1.1" viewBox="0 0 16 16" xmlns="http://www.w3.org/2000/svg" xmlns:cc="http://creativecommons.org/ns#" xmlns:dc="http://purl.org/dc/elements/1.1/" xmlns:rdf="http://www.w3.org/1999/02/22-rdf-syntax-ns#">
 <metadata>
  <rdf:RDF>
   <cc:Work rdf:about="">
    <dc:format>image/svg+xml</dc:format>
    <dc:type rdf:resource="http://purl.org/dc/dcmitype/StillImage"/>
    <dc:title/>
   </cc:Work>
  </rdf:RDF>
 </metadata>
 <g transform="matrix(1.7056 0 0 1.7056 -6.8861 -8.3206)" clip-rule="evenodd" fill-rule="evenodd" stroke-width=".057142">
  <path d="m7.604 7.019c0.021488 0.099028-0.10714 0.047827-0.11634 0.1164-0.072685-0.037659 0.030742-0.14108 0.11634-0.1164z" fill="#fff"/>
  <path d="m8.5929 8.4734c-0.30931-0.39343-0.056686-1.3874 0.64005-1.1053 0.32046 0.12983 0.47937 0.74171 0.14543 1.0182-0.059829 0.049368-0.24246 0.064857-0.31994 0.087085-0.00714 0.00204-0.11628 0.087714-0.17457 0.087257-0.087488-5.59e-4 -0.18354-0.052283-0.29097-0.0872zm0.55279-0.20371c0.22977-0.054517 0.23989-0.48817 0.029102-0.63988-0.16537 0.0092-0.18989 0.038345-0.37817 0.058171-0.18086 0.34663 0.061142 0.65022 0.34908 0.58171z"/>
  <path d="m8.7967 7.688c0.18823-0.01983 0.2128-0.048973 0.37817-0.058171 0.2108 0.15171 0.20074 0.58537-0.029102 0.63988-0.28794 0.068513-0.52994-0.23508-0.34908-0.58171z" fill="#fff"/>
  <path d="m7.604 7.9208h0.14543c-0.060399 0.057774 0.031028 0.066571 0.058228 0.1164-0.032744 0.094114-0.16971 0.1016-0.26177 0.058228 0.00949-0.068114 0.034855-0.12023 0.058111-0.17463z"/>
  <path d="m7.284 8.6771c0.049712 0.3084 0.011547 0.66485-0.14548 0.84359-0.0094874 0.010744-0.23034 0.14034-0.26177 0.14543-0.24371 0.038799-0.62417-0.14417-0.69811-0.34903-0.022858-0.063486-0.043428-0.32417-0.029085-0.37823 0.047085-0.17743 0.44937-0.55668 0.84354-0.46548 0.10783 0.024914 0.18891 0.15034 0.29091 0.20371zm-0.5236 0.11628c-0.045599-0.012512-0.024798-0.091485-0.11628-0.058228-0.22303 0.071143-0.27897 0.52548-0.058229 0.63994 0.090114 0.05223 0.20251-0.057768 0.2036-0.058111 0.032517-0.011715 0.043144 0.045657 0.087199 0.029027 0.033087-0.012396 0.040114-0.076457 0.087313-0.087314 0.072514-0.016404 0.12189-0.024687 0.14543-0.058229 0.096514-0.13703-0.011657-0.4392-0.087199-0.52342-0.088971 0.021028-0.085599-0.050287-0.17451-0.029143-0.00343 0.074342-0.00547 0.1496-0.087314 0.14548z"/>
  <path d="m11.153 9.2588c-0.22668 0.42737-1.0382 0.47914-1.1636 0-0.039654-0.15126 0.03646-0.50857 0.17457-0.63994 0.0556-0.052917 0.23926-0.13886 0.29091-0.14543 0.08971-0.011547 0.43394 0.042685 0.55268 0.14543 0.14091 0.122 0.14931 0.32263 0.14542 0.63994zm-0.32-0.52354c-0.11251-0.012402-0.10349-0.03183-0.17451 0.029201-0.2892-0.13354-0.39394 0.16217-0.43634 0.43617 0.0944 0.089886 0.1528 0.21566 0.32 0.23274 0.29863-0.13223 0.54685-0.35714 0.29086-0.69811z"/>
  <path d="m6.8478 8.648c0.088971-0.021145 0.0856 0.050171 0.17451 0.029143 0.075599 0.084285 0.18377 0.3864 0.0872 0.52342-0.023541 0.03354-0.072914 0.041771-0.14543 0.058228-0.047199 0.010854-0.054231 0.07497-0.087314 0.087313-0.044058 0.016631-0.054685-0.040742-0.087199-0.029027-0.00111 3.729e-4 -0.11354 0.11034-0.2036 0.058111-0.2208-0.11446-0.16486-0.5688 0.058228-0.63994 0.091485-0.033255 0.070628 0.045715 0.11628 0.058228 0.081771 0.00407 0.083829-0.0712 0.087314-0.14549z" fill="#fff"/>
  <path d="m9.1748 9.1715c0.10886-0.041027 0.2472 0.16126 0.37817 0.26177-0.00851 0.20251 0.072968 0.35217 0 0.52365-0.16748 0.39325-0.71994 0.37983-0.84359 0.087258-0.098398-0.2328-0.00436-0.56166 0.26177-0.78548 0.045541-0.038171 0.11177-0.053714 0.20365-0.087199zm-0.17451 0.49462c-0.05857 0.093656-0.12417 0.24554-0.087199 0.34891 0.24663 0.18091 0.49903-0.063085 0.46537-0.34891-0.10589-0.13263-0.188 0.048286-0.37817 0z"/>
  <path d="m7.604 10.19c0.069428 0.14886-0.058856 0.26811-0.26177 0.23251-0.083542-0.20948 0.04297-0.28846 0.26177-0.23251z"/>
  <path d="m5.8587 7.5136c-0.1444 0.16308 0.14731 0.23863 0.23274 0.34897 0.37005 0.019254 0.5068-0.42011 0.23274-0.52354-0.17977-0.067828-0.20246 0.18606-0.43634 0.087257 0.15571-0.35817 0.40451-0.62331 0.66902-0.87262 0.19971 0.089999 0.59365-0.042859 0.72719-0.2036 0.012454-0.15931 0.026456-0.16074 0.058228-0.32 0.26417-0.10423 0.62268-0.11429 0.90176-0.2036v0.29086c0.2536 0.24983 0.86656 0.2516 1.0763 0.029029 0.31103 0.14474 0.59108 0.3204 0.84354 0.52365-0.02013 0.3532 0.04937 0.43691 0.17451 0.64005 0.19514 0.00606 0.27571 0.045256 0.5236 0 0.02376-0.00448 0.10223-0.05543 0.08731-0.058171 0.21188 0.040056 0.52359 0.6008 0.69811 0.84354 0.05954 0.082743 0.15411 0.085371 0.14543 0.20348-0.28286 0.029998-0.24068 0.38125-0.11634 0.55262 0.18846 0.013088 0.29023 0.063314 0.43634-0.087086 0.13217 0.04194 0.15114 0.17823 0.23274 0.29086 0.13097 0.18051 0.36731 0.35731 0.32 0.61085-0.10766-0.018341-0.1732-0.078856-0.32-0.058229-0.20971 0.096971-0.29423 0.31765-0.46548 0.37811-0.02 0.21268-0.07 0.39531-0.1164 0.58182-0.17097 0.11411-0.31691 0.14703-0.49445 0.08709-3.11e-4 -0.13188-0.1636-0.33594-0.29092-0.43617-0.10343 0.04268-0.2064 0.0034-0.29091 0.02903-0.10017 0.03057-0.34891 0.24171-0.4072 0.34908-0.07954 0.14623-0.07269 0.366-0.14543 0.52377-0.0086 0.01834-0.06674 0.04268-0.08731 0.0872-0.084227 0.18223-0.17754 0.31126-0.34903 0.43617h-0.29091c-0.382-0.38703-0.16937-1.1278-1.1344-1.0471-0.32406 0.18354-0.51045 0.44017-0.69811 0.698-0.27508 0.10537-0.56125 0.132-0.69811-0.14508 0.060285-0.1816 0.010401-0.47851-0.14543-0.55291-0.272-0.13017-0.69908 0.24434-1.0472 0.17434-0.12788-0.02543-0.14674-0.12977-0.29086-0.17434-0.09017-0.2352 0.034686-0.39886-0.058171-0.61085-0.18194-0.27931-0.60034-0.021942-0.75628-0.20371 0.014513-0.079999 0.058914-0.13731 0.11634-0.20354 0.039428-0.0456 0.088513-0.18588 0.14543-0.26171 0.092342-0.12337 0.24657-0.15211 0.23274-0.29091 0.44103 0.13846 0.61897-0.22394 0.49457-0.58182-0.044114-0.12657-0.16737-0.18257-0.17457-0.2908 0.22583-0.14268 0.25737-0.4796 0.46531-0.63994zm3.2871-0.95999c-0.168-0.17634-0.39125 0.11223-0.34908 0.34897 0.17349 0.2492 0.638 0.047199 0.58177-0.29086-0.036571-0.011884-0.059484-0.037543-0.05817-0.087256-0.088917-0.02097-0.106 0.029771-0.17452 0.029142zm-1.3963 0.11628c-0.10394-0.065714-0.40274-0.046169-0.49445 0-0.13017 0.065542-0.15223 0.19097-0.23268 0.23268-0.10103 0.50137 0.43485 0.56771 0.78537 0.4364 0.07097-0.18868 0.052288-0.37788 0.029143-0.55268-0.040515 0.03154-0.052457-0.094285-0.087371-0.1164zm1.1344 1.8907c0.058344 4.345e-4 0.16743-0.0852 0.17457-0.087257 0.077484-0.022285 0.26011-0.037717 0.31994-0.087085 0.33394-0.27646 0.17502-0.88834-0.14543-1.0182-0.69674-0.28217-0.94931 0.71188-0.64005 1.1053 0.10748 0.034855 0.20354 0.086571 0.29097 0.0872zm-1.338-0.46531c0.092056 0.043371 0.22903 0.035885 0.26177-0.058228-0.027142-0.049828-0.11857-0.058628-0.058228-0.1164h-0.14543c-0.023198 0.054458-0.048572 0.10657-0.058111 0.17463zm-0.55268 0.37805c-0.39417-0.091256-0.79645 0.288-0.84354 0.46548-0.014342 0.054057 0.0062271 0.31474 0.029085 0.37823 0.073886 0.20486 0.4544 0.38783 0.69811 0.34903 0.031429-0.0050607 0.25234-0.13463 0.26177-0.14543 0.15703-0.17874 0.1952-0.53514 0.14548-0.84359-0.10206-0.053371-0.18314-0.1788-0.29091-0.20371zm4.0143 0.14537c-0.11874-0.10274-0.46303-0.15697-0.55268-0.14543-0.05165 0.00657-0.23531 0.092513-0.29091 0.14543-0.13811 0.13137-0.21423 0.48868-0.17457 0.63994 0.12543 0.47914 0.93691 0.42737 1.1636 0 0.0039-0.31726-0.0045-0.51788-0.14542-0.63994zm-3.287 0.34914c-0.053772 0.21006-0.067771 0.28691 0 0.46543 0.2356 0.12063 0.45863-0.019254 0.49445-0.26177-0.10651-0.19086-0.19823-0.21948-0.49445-0.20366zm1.2507 0.29086c-0.26606 0.22383-0.36011 0.55268-0.26177 0.78548 0.12366 0.29257 0.67611 0.30594 0.84359-0.087257 0.072968-0.17148-0.00851-0.32114 0-0.52365-0.13097-0.10051-0.26931-0.3028-0.37817-0.26177-0.091882 0.03343-0.15811 0.048973-0.20365 0.0872zm-1.6289 1.1634c0.20291 0.0356 0.3312-0.08366 0.26177-0.23251-0.2188-0.05594-0.34531 0.02303-0.26177 0.23251z" fill="#fff"/>
  <path d="m7.8368 6.7864c0.023146 0.1748 0.04183 0.364-0.029143 0.55268-0.35051 0.13131-0.88634 0.064971-0.78537-0.4364 0.080457-0.041713 0.10246-0.16714 0.23268-0.23268 0.091714-0.046169 0.39051-0.065714 0.49445 0 0.034913 0.022058 0.046855 0.14788 0.087371 0.1164zm-0.34914 0.34903c0.0091966-0.068514 0.13783-0.017311 0.11634-0.1164-0.085599-0.024687-0.18903 0.078742-0.11634 0.1164z"/>
  <path d="m10.106 6.3209c0.45131-0.071371 0.97594 0.0944 1.1345 0.46548 0.04651 0.10874-0.03863 0.23417 0 0.37811 0.04279 0.15943 0.19725 0.24537 0.32 0.37823 0.0091 0.00977 0.02028 0.081829 0.02913 0.087142 0.01646 0.010343 0.07469-0.013885 0.0872 0 0.10166 0.11268 0.20577 0.27754 0.32 0.40737 0.21622 0.2456 0.27034 0.66017 0.55268 0.81434 0.0094 0.236 0.29823 0.43651 0.34903 0.72731 0.04081 0.046402 0.10029 0.074228 0.17457 0.087314-0.026 0.067256-0.03354 0.12394 0 0.23274 0.41377 0.63811 0.12543 1.6979-0.26177 2.4436-0.06234 0.11983-0.23411 0.23668-0.37817 0.34891-0.02497 0.01926 0.01298 0.0468-0.02913 0.05806-0.11017 0.02943-0.19234 0.14834-0.2908 0.20388-0.28726 0.16108-0.5988 0.15446-0.81451 0.43617-0.22577 0.03445-0.42314 0.10194-0.63994 0.17474-0.23611 0.07874-0.43942 0.11086-0.72719 0.17423-0.12823 0.02845-0.25897 0.10143-0.37817 0.11663-0.23097 0.0287-0.49548-0.07394-0.75634-0.05851-0.058059 0.0036-0.14126 0.0656-0.29091 0.05851-0.063487-0.0033-0.10114-0.04526-0.17457-0.05851-0.13303-0.02389-0.28777 0.01978-0.4072 0-0.27005-0.04389-0.50245-0.2236-0.75628-0.29086-0.12268-0.0324-0.2024-0.01749-0.34908-0.05811-0.092628-0.0255-0.25526-0.04594-0.34903-0.17451-0.76662-0.1352-1.2377-0.5656-1.7744-0.93063-0.13137-0.27617-0.35565-0.45914-0.37817-0.84371-0.30611-0.45451-0.0014891-0.89519 0-1.4545-0.019771-0.067657-0.074342-0.10034-0.11634-0.14537 0.035657-0.42617 0.26297-0.82079 0.5236-1.0474-0.081199-0.37554-0.0041126-0.80885 0.43628-0.75611 0.092571-0.090228 0.18823-0.20343 0.1164-0.37823 0.094971-0.050514 0.14206-0.14863 0.11634-0.31988 0.22983-0.45863 0.67805-0.69879 0.87268-1.1927 0.12686 8.726e-4 0.15926-0.092685 0.26177-0.11628-0.029201-0.19354 0.12051-0.38297 0.29086-0.46548 0.35365 0.14023 0.71862-0.080914 1.0182-0.17451 0.051143-0.00697 0.066228-0.05 0.058111-0.11628 0.067885 0.00966 0.12532 0.029771 0.14548 0.087199 0.42194-0.23731 0.85291-0.14137 1.1635 0.029029 0.012053 0.00669 0.068397 0.043257 0.08737 0.058228 0.14017 0.1112 0.20057 0.31308 0.31994 0.4364 0.15165 0.15646 0.37451 0.23326 0.49451 0.378zm-1.1053-0.66902c-0.033029-0.034514-0.2056-0.1752-0.23274-0.029144-0.082171 0.024113-0.075313-0.040971-0.14542-0.029029-0.30251 0.38811 0.54348 0.664 0.37817 0.058171zm-3.607 2.5016c0.0072 0.10828 0.13046 0.16428 0.17457 0.2908 0.1244 0.35788-0.053543 0.72022-0.49457 0.58182 0.01383 0.1388-0.1404 0.16754-0.23274 0.29091-0.056914 0.075828-0.106 0.21611-0.14543 0.26171-0.057371 0.066172-0.10183 0.12349-0.11634 0.20354 0.15594 0.18183 0.57434-0.075542 0.75628 0.20371 0.092856 0.212-0.032057 0.37565 0.058171 0.61085 0.14411 0.04452 0.16297 0.14886 0.29086 0.17434 0.34817 0.07006 0.77525-0.30451 1.0472-0.17434 0.15583 0.0744 0.20571 0.37131 0.14543 0.55291 0.13691 0.27708 0.42303 0.25045 0.69811 0.14508 0.18766-0.25783 0.37405-0.51445 0.69811-0.698 0.96508-0.08069 0.75245 0.66011 1.1344 1.0471h0.29091c0.17148-0.12491 0.2648-0.25388 0.34903-0.43617 0.02056-0.04451 0.07869-0.06886 0.08731-0.0872 0.07269-0.15777 0.06589-0.37754 0.14543-0.52377 0.05828-0.10737 0.30703-0.31851 0.4072-0.34908 0.08452-0.02566 0.18749 0.01366 0.29092-0.02903 0.12731 0.10023 0.29051 0.30428 0.29091 0.43617 0.17748 0.05994 0.32348 0.02703 0.49445-0.08709 0.0464-0.18651 0.0964-0.36914 0.1164-0.58182 0.1712-0.060514 0.25577-0.28114 0.46548-0.37811 0.14674-0.020627 0.21228 0.039829 0.32 0.058228 0.047313-0.25359-0.18903-0.43033-0.32-0.61084-0.081599-0.11263-0.10057-0.24885-0.23274-0.29086-0.14611 0.15046-0.24788 0.10017-0.43634 0.087086-0.12434-0.17137-0.16652-0.52262 0.11634-0.55262 0.008632-0.11811-0.085942-0.12074-0.14543-0.20348-0.17451-0.2428-0.48622-0.80354-0.69811-0.84354 0.01491 0.00273-0.06354 0.053714-0.08731 0.058171-0.24789 0.045256-0.32846 0.00606-0.5236 0-0.12515-0.20314-0.19463-0.28686-0.17452-0.64005-0.25245-0.2032-0.53251-0.37891-0.84354-0.52365-0.20971 0.22257-0.82268 0.2208-1.0763-0.029029v-0.29086c-0.27903 0.089371-0.6376 0.099428-0.90176 0.2036-0.031714 0.1592-0.045715 0.16068-0.058228 0.32-0.13354 0.1608-0.52748 0.2936-0.72719 0.2036-0.26451 0.24937-0.51331 0.51451-0.66902 0.87262 0.23388 0.098799 0.25657-0.15508 0.43634-0.087257 0.27406 0.10343 0.13731 0.54285-0.23274 0.52354-0.085428-0.11035-0.37714-0.18583-0.23274-0.34897-0.20783 0.1604-0.23937 0.49731-0.46531 0.63994zm1.3671-1.949c0.052283-0.00372 0.068114 0.028916 0.058228 0.087257 0.21497 0.00384 0.18446-0.1512 0.14548-0.31994h-0.087314c-0.056227 0.060114-0.070914 0.16188-0.1164 0.23268zm3.7233 0.52365c0.0028 0.18348 0.03451 0.30474 0.26183 0.31988 0.10983-0.1476-0.01264-0.36086-0.17451-0.40714-0.02845 0.029713-0.05749 0.058857-0.08731 0.087257zm-5.4396 1.8325c0.0272 0.12783 0.060685 0.2496 0.20366 0.26177 0.1068-0.00949 0.083942-0.14874 0.2036-0.14531-0.038057-0.11708-0.045828-0.26446-0.17451-0.29086-0.00526 0.1304-0.14137 0.13011-0.23274 0.1744zm6.7486 0.087313c0.08011 0.034745 0.12148 0.063085 0.2036 0.029143 0.0038-0.071714 0.0044-0.14023-0.02904-0.17468-0.11286-0.00617-0.13257 0.0808-0.17457 0.14554zm-7.1558 0.55257c-0.12103 0.16337 0.048285 0.083085 0 0zm7.5339 0.87274c-0.04971 0.27303-0.05383 0.46462-0.26177 0.61085 0.06074 0.01686-0.04194 0.11-0.0291 0.17463-0.16514 0.15954-0.4008 0.17954-0.69817 0.14531-0.11474-0.10377-0.26851-0.35411-0.4072-0.34908-0.10543 0.0039-0.09377 0.05406-0.2036 0.11629-0.03829 0.10446 0.0019 0.10674-0.0291 0.20383-0.38508 0.31314-0.42571 0.97039-1.1927 0.90177-0.097316-0.14508-0.30914-0.1756-0.4072-0.32006-0.044744-0.25554-0.12177-0.52137-0.43634-0.61085-0.43714 0.1196-0.6892 0.75205-1.2217 0.7564-0.41463 0.003258-0.57114-0.40605-0.72719-0.78536-0.48851-8.73e-4 -0.64634 0.228-1.1635 0.14508-0.12548-0.12371-0.26537-0.19006-0.34908-0.37794-0.095314-0.21417-0.044685-0.55834-0.31994-0.58188-0.094856 0.06646 0.00909 0.15097-0.058228 0.2328 0.0116 0.06966-0.13246-0.01606-0.087199 0.08709-0.054399 0.30017-0.17857 0.59194 0.11634 0.75651-0.038629 0.0292-0.10823 0.02754-0.11634 0.08726 0.078571 0.31908 0.18143 0.61382 0.37817 0.81451 0.4656 0.28074 0.90119 0.59177 1.4544 0.78531-0.036001 0.09411 0.094114 0.02206 0.058171 0.1164 0.34074 0.09411 0.68942 0.28377 1.0471 0.34914 0.11251 0.02041 0.24908 0.09503 0.37817 0.11617 0.37857 0.06223 0.84817 0.08948 1.2218 0.11663 0.44514 0.03166 0.77879-0.08314 1.1635-0.11663 0.04954-0.01811 0.04777-0.08771 0.08726-0.11617 0.11251 0.05715 0.1872-0.0404 0.23268-0.05834 0.04217-0.01652 0.10268 0.01522 0.14543 0 0.01165-0.0041 0.0055-0.04908 0.02907-0.05834 0.20697-0.07943 0.39674-0.1012 0.58177-0.17446 0.18314-0.07257 0.31691-0.16486 0.49445-0.29091 0.14571-0.10354 0.33783-0.19354 0.46542-0.31977 0.05926-0.05874 0.08303-0.15314 0.14543-0.2328 0.06069-0.07754 0.16451-0.13611 0.20366-0.20383 0.08537-0.14737 0.16903-0.42263 0.23263-0.63977 0.06268-0.21348 0.12125-0.49291 0.11634-0.66908-0.0076-0.27754-0.17566-0.46948-0.2908-0.7272-0.24086-0.086343-0.4116-0.030684-0.55274 0.11651zm-7.0685 0.14548c0.070285 0.14948 0.0752-0.10017 0 0zm5.7595 0.20343c-0.18634-0.03354-0.06389 0.08897 0 0z"/>
  <path d="m9.3203 6.5245c-0.00122 0.049712 0.021587 0.075371 0.05817 0.087256 0.056168 0.33806-0.40828 0.54005-0.58177 0.29086-0.042173-0.23674 0.18108-0.52537 0.34908-0.34897 0.068515 5.817e-4 0.085599-0.050171 0.17452-0.029143z"/>
  <path d="m5.2769 8.3862c0.12868 0.026397 0.13651 0.17377 0.17451 0.29086-0.11966-0.003432-0.096742 0.13583-0.2036 0.14531-0.14297-0.012169-0.17646-0.13394-0.20366-0.26177 0.091371-0.044284 0.22748-0.043999 0.23274-0.1744z" fill="#fff"/>
  <path d="m8.2148 9.1715c-0.035827 0.24251-0.25885 0.3824-0.49445 0.26177-0.067771-0.17846-0.053772-0.25537 0-0.46543 0.29628-0.015776 0.388 0.012855 0.49445 0.20366z"/>
  <path d="m12.724 9.9569c0.11514 0.25771 0.2832 0.4496 0.2908 0.72719 0.0048 0.17617-0.05366 0.4556-0.11634 0.66908-0.06365 0.2172-0.14726 0.4924-0.23262 0.63977-0.03914 0.06777-0.14303 0.12628-0.20366 0.20383-0.06246 0.07971-0.08623 0.17406-0.14543 0.2328-0.12754 0.12623-0.31966 0.21623-0.46542 0.31977-0.17754 0.12606-0.31131 0.21834-0.49445 0.29091-0.18503 0.0732-0.37485 0.09503-0.58177 0.17446-0.0236 0.0092-0.01749 0.05417-0.02907 0.05834-0.0428 0.01522-0.10326-0.01652-0.14543 0-0.04548 0.01789-0.12017 0.11549-0.23268 0.05834-0.03943 0.02845-0.03771 0.09806-0.08726 0.11617-0.38474 0.03348-0.71845 0.14828-1.1635 0.11663-0.37359-0.027138-0.84313-0.054396-1.2218-0.11662-0.12908-0.02115-0.26565-0.095774-0.37817-0.11617-0.35765-0.065428-0.70634-0.25503-1.0471-0.34914 0.035943-0.09434-0.094171-0.022285-0.058171-0.1164-0.55326-0.19354-0.9888-0.50457-1.4544-0.78531-0.19674-0.20068-0.2996-0.49542-0.37817-0.81451 0.00812-0.05971 0.077714-0.05811 0.11634-0.08726-0.29491-0.16457-0.17074-0.45634-0.11634-0.75651-0.045256-0.1032 0.098799-0.01749 0.087199-0.08709 0.067257-0.08189-0.036685-0.16634 0.058228-0.2328 0.27526 0.02355 0.22463 0.36771 0.31994 0.58188 0.083714 0.18788 0.2236 0.25423 0.34908 0.37794 0.5172 0.08291 0.67502-0.146 1.1635-0.14509 0.15606 0.37931 0.31257 0.78862 0.7272 0.78537 0.53257-0.0044 0.78456-0.63685 1.2217-0.75639 0.31457 0.08948 0.39166 0.35537 0.43634 0.61085 0.098057 0.1444 0.30989 0.17497 0.4072 0.32005 0.76697 0.06863 0.80754-0.58862 1.1927-0.90177 0.03103-0.09708-0.0092-0.09937 0.0291-0.20383 0.10983-0.06223 0.09817-0.1124 0.2036-0.11629 0.13868-5e-3 0.29246 0.24531 0.4072 0.34908 0.29737 0.03423 0.53302 0.01423 0.69817-0.14531-0.01286-0.06463 0.08983-0.15777 0.0291-0.17463 0.20794-0.14628 0.21206-0.33783 0.26177-0.61085 0.14114-0.14737 0.31188-0.20303 0.55274-0.11651z" fill="#fff"/>
 </g>
</svg>
