<svg xmlns="http://www.w3.org/2000/svg" xmlns:xlink="http://www.w3.org/1999/xlink" viewBox="0 0 16 16"><defs><clipPath id="b"><use width="100%" height="100%" xlink:href="#a"/></clipPath></defs><g clip-path="url(#b)" transform="translate(-41.215 -5.19) scale(.06173)"><g id="a" fill-rule="evenodd" clip-rule="evenodd"><path fill="#fff" d="M944.88 210.78c-1.953.417-3.14 1.591-5.11 0-.368-.297.194-.686-.426-.852-1.589-.425-4.986-8.167-6.388-11.074-1.142-2.37-1.676-3.284-2.558-6.39-.825-2.902-2.744-5.538-4.261-8.094-.945-1.596-1.47-3.703-2.98-4.26-.709-3.691-2.138-6.663-3.833-9.371.958-1.88 4.01-1.669 5.538-2.981.686-.121.733.402 1.275.426 3.843 12.927 11.564 22.56 15.763 35.354.834 2.545 2.68 4.712 2.98 7.242z" transform="translate(-178.96 -75.574)"/><path fill="#fff" d="M952.55 209.5c.657-1.473.378-3.881.426-5.961 2.003-3.255 2.816-7.692 5.112-10.649 4.928-3.85 8.896-8.061 15.761-10.649 10.341-3.897 24.446-1.444 34.502 4.259 4.364 4.039 7.669 8.799 8.944 15.76 1.146 6.266.454 15.235-2.555 20.446-9.905-3.592-22.145-.048-28.966 2.557-.922.072-.193-1.511-.426-2.129-3.622-1.175-5.225-5.995-8.094-7.244-.622-.271-1.688.05-.854-.425-6.921-3.661-13.268-7.102-23.85-5.965zm28.54-22.574c2.9.935 5.813.821 6.815-2.13-1.699-2.441-6.849-.985-6.815 2.13zm-12.352 2.983c.735.681 1.551 1.29 1.277 2.981 1.693-1.288 2.722-3.242 2.981-5.964-2.378-.869-3.908.658-4.258 2.983zm17.89 1.277c-2.853 1.837-7.856 1.516-8.093 5.964 3.71 2.106 7.691-1.628 10.22-3.409-.232.002-.481-.343 0-.426.235-1.652-1.838-1-2.127-2.129z" transform="translate(-178.96 -75.574)"/><path d="M987.9 184.79c-1.002 2.951-3.915 3.065-6.815 2.13-.034-3.115 5.116-4.571 6.815-2.13z" transform="translate(-178.96 -75.574)"/><path d="M973 186.92c-.26 2.722-1.288 4.677-2.981 5.964.273-1.691-.542-2.3-1.277-2.981.349-2.325 1.879-3.852 4.258-2.983z" transform="translate(-178.96 -75.574)"/><path d="M988.76 193.31c-.481.083-.232.428 0 .426-2.528 1.781-6.51 5.515-10.22 3.409.236-4.448 5.24-4.127 8.093-5.964.289 1.129 2.362.477 2.127 2.129z" transform="translate(-178.96 -75.574)"/><path d="M939.35 223.56c.13 1.29 1.317 1.521.852 3.407-2.186.744-3.636 3.708-5.962 2.983-.368-.345-.253-1.168-.852-1.278 1.154-2.537 2.29-5.092 5.962-5.112zm-2.13 3.407c.731.024 1.091-.328 1.278-.851-.669.041-1.476-.057-1.278.851z" transform="translate(-178.96 -75.574)"/><path fill="#fff" d="M938.5 226.11c-.188.522-.547.875-1.278.851-.198-.908.609-.81 1.278-.851z" transform="translate(-178.96 -75.574)"/><path d="M1002.8 231.22c-.796.757.348 1.083 0 2.555-2.146 1.261-3.556 3.261-7.668 2.556-1.291-4.295 4.813-5.982 7.668-5.111z" transform="translate(-178.96 -75.574)"/><path d="M988.33 232.93c1.149 1.318-1.285 2.641-.424 3.407-1.689.631-3.214 2.292-4.687.853.057-3.068 2.015-4.234 5.111-4.26z" transform="translate(-178.96 -75.574)"/><path d="M994.72 239.74c-.705 1.502-2.045 1.416-2.555 3.834-.675.034-1.623-.207-1.703.426-.433-.278-.442-.979-1.28-.852-.088-.729.728-1.105 0-1.278 1.592-1.184 3.132-2.951 5.538-2.13z" transform="translate(-178.96 -75.574)"/><path fill="#fff" d="M1031.4 252.1c-.384 7.795-5.688 19.736-5.538 28.111-3.941-4.266-6.45-6.495-10.65-10.649.922-2.481 2.953-5.245 4.261-7.666.976-1.811.739-2.853 2.129-3.834 2.986-2.101 6.991-3.506 9.798-5.962z" transform="translate(-178.96 -75.574)"/><path fill="#fff" d="M1016.4 260.19c.374 2.225-2.218 5.158-2.979 7.668-2.164-.678-3.152-2.53-5.112-3.409 2.335-1.783 6.338-1.897 8.091-4.259z" transform="translate(-178.96 -75.574)"/><path fill="#fff" d="M1011.3 269.98c-2.919 3.754-5.506 7.84-8.091 11.926-3.489-3.185-7.003-6.343-10.65-9.371.924-5.464 7.207-5.572 11.928-7.242 2.412 1.422 4.5 3.167 6.813 4.687z" transform="translate(-178.96 -75.574)"/><path fill="#fff" d="M988.76 272.11c-1.813 4.147-4.128 7.796-7.239 10.649-.659 2.325-2.026 3.936-3.833 5.112-2.613-1.647-3.477-5.041-6.817-5.964.332-2.4-3.343-4.259-5.11-5.964-.122-.688.404-.733.426-1.276-.13-.58-1.066-.354-1.703-.428.633-1.211 1.581-2.108 2.129-3.406 8.822 1.085 17.418-2.916 22.147 1.277z" transform="translate(-178.96 -75.574)"/><path fill="#fff" d="M949.57 292.13c-4.189-3.103-6.277-5.68-9.794-9.37 2.969-3.846 4.353-9.277 8.093-12.352h8.52c.098 2.184 4.78 2.588 5.11 4.685.04.249-2.184 4.471-2.983 5.536-.92 1.231-2.311 1.433-3.405 2.983-.289.406-.12.923-.426 1.276-.759.873-1.918 3.748-2.555 4.686-.502.739-2.562 1.478-2.56 2.556z" transform="translate(-178.96 -75.574)"/><path fill="#fff" d="M990.46 275.95c4.121 2.693 6.98 6.65 10.222 10.224-.662 3.171-3.095 4.573-3.832 7.667-6.253 1.498-11.988 1.856-14.909-2.129-.31-1.844 2.233-4.214 3.833-5.537-.036-.675.207-1.626-.426-1.705 1.832-2.715 3.219-5.866 5.112-8.52z" transform="translate(-178.96 -75.574)"/><path fill="#fff" d="M963.63 278.93c3.811 4.141 7.509 8.392 11.5 12.352-.9 2.082-2.64 3.324-3.835 5.11-6.348.151-11.612.951-17.036.428.813-3.589 2.013-6.791 5.11-8.093.277-2.564 2.525-5.313 4.687-7.241-.49-.504-.483-1.507-.426-2.556z" transform="translate(-178.96 -75.574)"/><path fill="#fff" d="M937.22 285.75c3.472 3.415 7.583 6.739 9.371 10.646-2.535-.599-8.975-.184-11.928-1.701-2.001.395-1.133.884-2.983 0 1.26-3.57 4.086-5.574 5.54-8.945z" transform="translate(-178.96 -75.574)"/><path fill="#fff" d="M1010.5 345.8c-.468 1.378-1.237 2.455-1.703 3.833-1.123-.864-2.64-1.335-2.981-2.981 2.023.178 3.071-.618 4.684-.852z" transform="translate(-178.96 -75.574)"/><path fill="#fff" d="M952.98 346.23c1.002.134 1.599.674 2.983.426 1.23 3.026 6.101 2.418 6.813 5.964-1.6 1.859-4.628 3.413-4.685 5.536-1.658-4.018-3.612-7.746-5.111-11.926z" transform="translate(-178.96 -75.574)"/><path fill="#fff" d="M1006.6 353.47c-1.77 3.058-3.523 6.132-5.109 9.371-3.763-1.917-6.041-5.317-9.371-7.667 1.382-3.022 3.3-5.503 5.536-7.668 2.763.756 5.798 4.243 8.944 5.964z" transform="translate(-178.96 -75.574)"/><path fill="#fff" d="M986.2 354.75c-1.015 3.529-3.594 5.495-5.11 8.519-5.01-3.792-8.734-8.869-13.205-13.205 1.199-3.407 8.442-.849 11.076-1.702 3.039 1.502 5.014 4.07 7.239 6.388z" transform="translate(-178.96 -75.574)"/><path fill="#fff" d="M1009.2 353.47c1.11.307 1.304 1.534 2.553 1.705-1.076 5.294-1.004 9.41-2.553 14.482-2.731-1.386-4.747-3.489-6.392-5.964 3.365-3.119 4.203-6.237 6.392-10.223z" transform="translate(-178.96 -75.574)"/><path fill="#fff" d="M978.54 366.25c-1.724 2.744-3.506 7.291-5.112 8.945-.891.914-1.688.232-1.706 1.276-3.146-.314-3.184-4.272-6.813-3.407-1.876-4.8-4.563-8.784-6.392-13.63 3.425-.412 3.313-4.359 5.966-5.538 5.136 3.667 8.74 8.866 14.057 12.354z" transform="translate(-178.96 -75.574)"/><path fill="#fff" d="M989.18 358.58c3.938 2.028 6.68 5.25 9.371 8.519-1.319 3.364-3.445 5.925-5.536 8.52-3.704-2.117-6.331-5.311-8.945-8.52 1.814-3.079 3.783-5.566 5.11-8.519z" transform="translate(-178.96 -75.574)"/><path fill="#fff" d="M1000.3 368.8c3.574 2.154 4.924 5.021 7.666 7.24-1.021 3.524-3.58 5.509-5.538 8.094-3.852-.551-4.396-4.409-7.242-5.964.962-3.866 3.917-5.737 5.114-9.37z" transform="translate(-178.96 -75.574)"/><path fill="#fff" d="M981.52 370.51c3.991 1.828 6.295 5.345 9.797 7.667-1.72 2.966-4.17 5.2-5.964 8.094-3.146-3.672-8.356-5.276-11.5-8.945 1.906-2.923 5.975-3.683 7.667-6.816z" transform="translate(-178.96 -75.574)"/><path fill="#fff" d="M966.18 376.47c1.473-1.026 2.451 2.078 4.259 2.13-.5.918-.924 1.915-2.129 2.129-.171-1.958-1.049-3.209-2.13-4.259z" transform="translate(-178.96 -75.574)"/><path fill="#fff" d="M993.02 379.88c-.192 1.252 7.479 5.34 7.667 6.814.209 1.644-4.718 5.139-5.538 6.815-2.842-1.986-6.068-3.586-7.665-6.815 2.386-1.729 3.682-4.552 5.536-6.814z" transform="translate(-178.96 -75.574)"/><path fill="#fff" d="M982.79 388.82c.253 2.329-1.802 2.772-2.557 3.832-.101.142.643.675.426.854-.896.744-2.272 2.168-3.407 3.406-3.41-3.542-5.219-8.693-7.665-13.204.701-1 1.906-1.5 2.127-2.981 4.49 1.899 7.252 5.526 11.076 8.093z" transform="translate(-178.96 -75.574)"/><path d="M926.57 163.07c2.138 2.266 4.426 4.377 4.685 8.519 2.433-.011 2.575.328 4.687 0 5.667 5.196 7.539 16.131 10.65 23.852.825 2.052 2.431 3.73 2.553 5.964 2.431-4.123 4.122-8.159 5.966-11.926 5.285-5.62 12.308-9.922 21.723-12.779.522-.158 1.18.146 1.706 0 .949-.264 1.106-.827 2.555-.853 1.315-.024 2.734.734 4.259.853 3.604.28 7.896-.514 11.502 0 4.111.586 8.822 3.797 12.354 6.39 2.762 2.03 5.554 4.568 7.237 6.39.982 1.058 1.802 4.013 3.409 5.111 2.815 10.323 4.455 20.976-.852 29.39 4.586 2.23 8.731 4.896 13.205 7.241-.54 1.602 1.918 2.019 2.98 3.409 1.047 1.368.975 3.489 2.556 4.26-.521 2.811.099 7.347-2.127 10.221.681 2.881-.097 4.164.426 5.964-2.799 9.892-5.857 19.929-7.244 30.669-1.33 10.321-3.712 20.684-5.536 31.092-.803 4.574-2.728 8.879-3.408 13.632-.752 5.241-1.053 10.608-1.702 16.186-.656.48-1.052 1.222-1.707 1.705-2.689 17.116-4.863 36.637-8.945 51.112-2.205 1.787-3.883 5.688-5.961 8.519-.693.942-1.366 2.488-2.13 3.409-.237.285-1.357.473-1.705.851-.92 1.005-.929 2.009-2.556 2.555-2.281.773-6.954.823-9.796 0-4.044-1.17-4.399-5.006-8.094-7.241-6.468-10.171-11.813-21.819-17.462-33.224-.635-1.277-1.753-2.653-2.131-3.832-.475-1.479-.061-3.261-.426-4.687-.944-3.676-2.935-6.5-5.11-9.371.382-1.245.382-1.309 0-2.555-4.104-7.829-7.591-17.11-12.779-25.984-3.782-6.467-6.714-13.419-9.371-20.871-.795-2.223-.795-4.705-2.555-6.389-.235-.945.813-.605.85-1.276-3.084-5.36-5.359-11.629-7.665-17.465-1.051-2.659-1.889-4.45-2.558-8.093-.235-1.286-1.398-2.94-1.701-4.686-.661-3.787 1.093-7.004 0-9.796h1.701c-2.318-3.832-3.491-11.099-2.979-18.743.343-5.158 1.05-8.924 3.406-12.777 3.367-5.514 11.553-10.667 17.462-14.057-1.667-5.53-6.817-11.974-10.223-19.592-1.549-3.472-2.535-7.405-4.258-10.649-2.469-4.648-6.599-8.506-6.816-14.483-.141-3.864 7.32-6.243 11.925-5.965zm49.835 52.391c-.834.475.231.154.854.425 2.869 1.249 4.472 6.068 8.094 7.244.232.619-.496 2.202.426 2.129 6.821-2.605 19.061-6.149 28.966-2.557 3.009-5.211 3.7-14.18 2.555-20.446-1.275-6.96-4.58-11.721-8.944-15.76-10.056-5.704-24.161-8.156-34.502-4.259-6.864 2.588-10.833 6.799-15.761 10.649-2.296 2.957-3.109 7.394-5.112 10.649-.048 2.08.231 4.488-.426 5.961 10.581-1.137 16.928 2.304 23.85 5.965zm-34.498-11.926c-4.198-12.794-11.92-22.427-15.763-35.354-.542-.024-.59-.546-1.275-.426-1.528 1.312-4.58 1.101-5.538 2.981 1.695 2.708 3.124 5.68 3.833 9.371 1.511.557 2.035 2.664 2.98 4.26 1.517 2.556 3.436 5.191 4.261 8.094.882 3.106 1.416 4.021 2.558 6.39 1.401 2.906 4.799 10.649 6.388 11.074.62.166.058.555.426.852 1.971 1.591 3.157.417 5.11 0-.3-2.531-2.146-4.698-2.98-7.242zm-4.686-21.724c-.202-1.459-1.018-3.545-2.131-5.111.235 2.178.612 4.216 2.131 5.111zm9.371 22.149c.374 1.854-.367 2.358.852 2.981.416-3.94-2.722-8.408-4.685-12.776-1.633-3.633-2.661-7.365-5.112-9.798 2.089 7.422 5.49 13.536 8.945 19.593zm31.095 19.169c-1.783-2.052-3.541-4.13-5.112-6.39-6.038-2.445-12.932-3.689-18.743-2.555-4.048.788-13.852 4.293-15.759 5.961-2.458 2.152-5.778 3.418-8.519 4.686-7.862 4.638-14.224 22.704-8.093 34.078 2.139.129 2.77 1.771 3.834 2.98 7.6.243 17.091 5.067 26.835 2.555 1.462-.187 2.387.169 3.407.426-1.796-20.226 11.156-30.129 25.129-38.761-2.385.395-2.579-1.394-3.833-2.13.521-.047 1.011-.127.854-.85zm7.24 41.316c2.061-.173 4.003.232 5.964 0 5.221-.621 9.567-2.659 14.482-3.407 2.445-2.179 5.127-3.181 9.795-4.688 4.772-3.888 12.281-5.041 16.188-9.795.865-6.854-4.407-11.197-7.241-15.76-11.262-7.718-29.332-7.245-41.742-.425-8.842 4.856-14.125 7.422-18.317 15.759-1.228 2.44-3.552 7.481-3.833 9.371-.337 2.223.792 7.562.852 10.649 9.304 1.027 16.417-1.076 23.852-1.704zm36.631-6.39c-1.39.981-1.153 2.024-2.129 3.834-1.308 2.421-3.339 5.185-4.261 7.666 4.2 4.154 6.709 6.384 10.65 10.649-.15-8.375 5.154-20.316 5.538-28.111-2.806 2.456-6.811 3.861-9.798 5.962zm-13.203 6.39c1.96.879 2.948 2.731 5.112 3.409.761-2.51 3.353-5.444 2.979-7.668-1.754 2.362-5.757 2.476-8.091 4.259zm-77.524 9.796c2.518.925 5.012 4.689 6.815 6.815 2.905-3.059 5.135-6.792 6.814-11.073-5.432.07-13.431-2.551-20.871-4.687.055.766-.424.999-1.279.854 1.838 7.872 4.037 15.907 7.243 23 .257.571.076 2.175 1.277 2.13 1.621-2.497 3.813-4.422 5.11-7.241-2.651-2.459-5.588-4.631-6.388-8.945-2.053-2.065-4.17-4.064-5.964-6.39 3.473-2.652 6.27 4.273 7.243 5.537zm73.691-8.945c-4.721 1.67-11.004 1.778-11.928 7.242 3.647 3.027 7.161 6.186 10.65 9.371 2.585-4.085 5.172-8.171 8.091-11.926-2.313-1.52-4.401-3.265-6.813-4.687zm-15.337 4.259c1.382-.525.326 1.379 1.706.854.57-.28.791-.912.852-1.705-1.224-.089-2.165.109-2.558.851zm-22.575 1.28c-.548 1.297-1.496 2.194-2.129 3.406.637.074 1.573-.152 1.703.428-.021.543-.548.588-.426 1.276 1.768 1.705 5.442 3.563 5.11 5.964 3.341.923 4.204 4.317 6.817 5.964 1.807-1.176 3.174-2.787 3.833-5.112 3.111-2.854 5.426-6.502 7.239-10.649-4.727-4.194-13.323-.193-22.147-1.277zm-14.48 18.74c.637-.938 1.796-3.813 2.555-4.686.306-.354.137-.871.426-1.276 1.095-1.55 2.485-1.751 3.405-2.983.8-1.065 3.023-5.287 2.983-5.536-.33-2.097-5.013-2.501-5.11-4.685h-8.52c-3.74 3.074-5.124 8.506-8.093 12.352 3.517 3.69 5.604 6.267 9.794 9.37-.002-1.079 2.058-1.818 2.56-2.556zm9.795-17.037c1.199-.08 1.815-.742 1.705-2.129-1.019.258-3.09-.537-3.407.426 1.081.052 1.649.619 1.702 1.703zm50.687 1.278c-2.055 4.568-3.689 7.085-5.964 11.928 2.067.775 3.854 1.828 4.687 3.832 1.593-.037 1.216-.477 2.558 0 .945-1.114 2.452-1.861 3.832-2.555 1.288-.646 2.778-1.34 3.409-1.704 1.659-.962 3.788-1.318 4.685-2.555-.097-.609-2.121.395-3.407 0-2.393-3.713-6.597-5.615-8.944-9.371-.733.167-1.095-.631-1.278 0 .256.023.502.062.422.425zm-27.259 10.648c.633.079.39 1.03.426 1.705-1.6 1.323-4.143 3.693-3.833 5.537 2.921 3.985 8.656 3.627 14.909 2.129.737-3.094 3.17-4.496 3.832-7.667-3.241-3.574-6.101-7.531-10.222-10.224-1.893 2.655-3.28 5.806-5.112 8.52zm-21.297-2.98c-2.161 1.928-4.409 4.676-4.687 7.241-3.098 1.303-4.297 4.504-5.11 8.093 5.424.523 10.688-.277 17.036-.428 1.195-1.786 2.935-3.028 3.835-5.11-3.991-3.96-7.689-8.211-11.5-12.352-.057 1.049-.064 2.052.426 2.556zm-32.375 13.204c1.851.884.982.395 2.983 0 2.953 1.518 9.393 1.103 11.928 1.701-1.788-3.907-5.899-7.231-9.371-10.646-1.454 3.372-4.28 5.376-5.54 8.945zm91.582-6.815c-3.005 1.639-6.283 3.728-9.796 5.111-4.273 1.681-10.982 2.06-12.354 4.26-7.036-.295-14.047 1.902-21.724 2.555-6 .51-13.017-.858-19.592 0-.622.08-1.585-.167-2.131.852-6.541-1.349-16.462-1.264-24.277-2.556 6.506 15.155 11.489 27.419 17.464 43.448 8.427.708 19.382 2.539 28.112 2.13 6.669-.314 12.518-.838 17.89-1.705 3.22-.521 6.508-.59 8.944-1.278 1.063-.299 1.642-1.37 2.556-1.705.918-.334 2.42-.114 3.406-.426 1.271-.399 2.149-1.305 3.407-1.276 2.766-12.064 2.398-22.325 5.538-34.077 1.036-3.876 5.928-12.914 2.982-15.333h-.425zm-20.446 4.257c1.319.044 2.364-.191 2.982-.851-1.342.206-.964-1.307-2.555-.851.092.806-.48.941-.427 1.702zm-25.13 4.26h1.278v-.851h-1.278v.851zm27.26 47.708c.758-.237 1.768-.22 2.127-.854-.802.189-2.564-.579-2.127.854zm.852 2.555c.342 1.646 1.858 2.117 2.981 2.981.466-1.379 1.235-2.456 1.703-3.833-1.613.234-2.661 1.03-4.684.852zm-47.707 11.5c.057-2.123 3.085-3.677 4.685-5.536-.713-3.545-5.583-2.938-6.813-5.964-1.385.248-1.981-.292-2.983-.426 1.498 4.18 3.452 7.908 5.111 11.926zm52.391-5.536c2.889.321 2.927-4.446 2.556-5.964-.553 1.798-2.681 3.699-2.556 5.964zm-45.15-4.259h.852v-.854h-.852v.854zm20.445 0c.918 1.07 2.239 1.734 3.406 2.555-.341-1.762 1.549-1.293 1.28-2.983-.987-.23-3.446-.275-4.686.428zm11.926-.854c-2.236 2.166-4.154 4.646-5.536 7.668 3.33 2.349 5.608 5.749 9.371 7.667 1.586-3.239 3.34-6.313 5.109-9.371-3.145-1.721-6.18-5.208-8.944-5.964zm-18.739.854c-2.634.854-9.877-1.705-11.076 1.702 4.471 4.336 8.195 9.412 13.205 13.205 1.517-3.024 4.096-4.99 5.11-8.519-2.225-2.318-4.2-4.886-7.239-6.388zm23.852 15.332c1.645 2.475 3.66 4.578 6.392 5.964 1.549-5.072 1.477-9.188 2.553-14.482-1.249-.171-1.442-1.398-2.553-1.705-2.19 3.987-3.028 7.105-6.392 10.223zm-38.335-9.796c-2.653 1.179-2.541 5.126-5.966 5.538 1.828 4.846 4.516 8.831 6.392 13.63 3.63-.866 3.668 3.092 6.813 3.407.019-1.044.815-.362 1.706-1.276 1.606-1.654 3.389-6.201 5.112-8.945-5.317-3.488-8.921-8.687-14.057-12.354zm19.592 13.204c2.614 3.209 5.241 6.403 8.945 8.52 2.091-2.595 4.217-5.156 5.536-8.52-2.691-3.269-5.434-6.491-9.371-8.519-1.326 2.953-3.295 5.44-5.11 8.519zm11.075 11.075c2.847 1.555 3.391 5.413 7.242 5.964 1.958-2.585 4.518-4.57 5.538-8.094-2.742-2.219-4.092-5.086-7.666-7.24-1.197 3.633-4.152 5.504-5.114 9.37zm-21.296-.85c3.144 3.669 8.354 5.273 11.5 8.945 1.794-2.895 4.244-5.128 5.964-8.094-3.502-2.321-5.806-5.838-9.797-7.667-1.692 3.133-5.761 3.893-7.667 6.816zm35.355-5.539c-.261-.024-.506-.063-.428-.426.234.003.483-.344 0-.425-.853.376-.112 2.164.428.851zm-40.893 8.944c1.205-.215 1.629-1.211 2.129-2.129-1.808-.052-2.786-3.157-4.259-2.13 1.081 1.05 1.959 2.301 2.13 4.259zm19.168 5.964c1.597 3.229 4.823 4.829 7.665 6.815.82-1.676 5.747-5.171 5.538-6.815-.188-1.475-7.859-5.563-7.667-6.814-1.853 2.262-3.149 5.085-5.536 6.814zm-15.762-5.964c-.221 1.48-1.426 1.98-2.127 2.981 2.446 4.511 4.255 9.662 7.665 13.204 1.135-1.237 2.511-2.662 3.407-3.406.217-.179-.526-.712-.426-.854.755-1.06 2.81-1.502 2.557-3.832-3.824-2.565-6.586-6.192-11.076-8.093zm31.947 5.964c1.312-.316.819 1.168 2.131.852.038-1.837.729-3.276 0-3.834-.601 1.104-1.442 1.967-2.131 2.982zm-2.556 13.631c1.398-3.146 2.755-6.333 3.835-9.798-1.013-.693-1.729-1.678-2.982-2.128-2.853 3.734-7.206 9.825-.853 11.926zm-10.221 10.649c1.306-.165 4.341-2.216 5.538-3.409 1.205-1.202 1.719-3.59 2.98-4.684-1.277-1.848-3.638-2.61-5.112-4.261-3.364 3.337-5.779 7.306-8.519 10.225-1.019-1.106-1.009-1.968-1.277-2.984 1.508.233 1.048-1.506 2.557-1.276.408-3.992 4.542-4.259 5.536-7.668-3.018-1.665-4.894-4.476-7.667-6.389-1.308 3.944-4.896 5.614-5.962 9.798 4.28 3.364 5.242 11.49 11.926 10.648z" transform="translate(-178.96 -75.574)"/><path fill="#fff" d="M937.64 184.37c2.451 2.433 3.479 6.166 5.112 9.798 1.963 4.368 5.101 8.836 4.685 12.776-1.219-.623-.478-1.127-.852-2.981-3.455-6.056-6.856-12.17-8.945-19.593z" transform="translate(-178.96 -75.574)"/><path fill="#fff" d="M923.59 268.71c1.794 2.325 3.911 4.325 5.964 6.39.8 4.314 3.736 6.485 6.388 8.945-1.298 2.818-3.489 4.744-5.11 7.241-1.201.045-1.021-1.559-1.277-2.13-3.206-7.093-5.405-15.128-7.243-23 .855.146 1.334-.087 1.279-.854 7.44 2.136 15.439 4.757 20.871 4.687-1.68 4.282-3.909 8.014-6.814 11.073-1.804-2.126-4.298-5.891-6.815-6.815-.975-1.265-3.772-8.19-7.243-5.537z" transform="translate(-178.96 -75.574)"/><path fill="#fff" d="M1012.2 273.39c.184-.631.545.167 1.278 0 2.348 3.756 6.552 5.658 8.944 9.371 1.286.395 3.311-.609 3.407 0-.896 1.237-3.025 1.593-4.685 2.555-.631.364-2.121 1.058-3.409 1.704-1.38.694-2.887 1.441-3.832 2.555-1.342-.477-.965-.037-2.558 0-.833-2.004-2.619-3.056-4.687-3.832 2.274-4.842 3.909-7.36 5.964-11.928.081-.362-.165-.401-.422-.425z" transform="translate(-178.96 -75.574)"/><path fill="#fff" d="M978.96 400.32c1.066-4.184 4.654-5.854 5.962-9.798 2.773 1.913 4.649 4.724 7.667 6.389-.994 3.409-5.128 3.676-5.536 7.668-1.509-.23-1.049 1.51-2.557 1.276.269 1.017.259 1.878 1.277 2.984 2.739-2.919 5.154-6.887 8.519-10.225 1.475 1.65 3.835 2.413 5.112 4.261-1.262 1.094-1.775 3.482-2.98 4.684-1.197 1.192-4.232 3.244-5.538 3.409-6.684.843-7.646-7.283-11.926-10.648z" transform="translate(-178.96 -75.574)"/><path fill="#fff" d="M976.83 223.98c1.254.736 1.448 2.525 3.833 2.13-13.973 8.631-26.925 18.535-25.129 38.761-1.021-.257-1.945-.613-3.407-.426-9.744 2.512-19.235-2.312-26.835-2.555-1.064-1.209-1.695-2.851-3.834-2.98-6.131-11.375.23-29.44 8.093-34.078 2.74-1.268 6.061-2.533 8.519-4.686 1.907-1.667 11.711-5.173 15.759-5.961 5.812-1.134 12.705.11 18.743 2.555 1.571 2.26 3.329 4.338 5.112 6.39.157.722-.333.802-.854.85zm-43.444 4.685c.599.11.483.933.852 1.278 2.326.726 3.776-2.239 5.962-2.983.466-1.885-.722-2.117-.852-3.407-3.672.021-4.808 2.576-5.962 5.112zm11.072 1.705c-2.202 1.979-6.055 5.162-4.259 8.519 5.597.219 9.218-6.287 4.259-8.519zm-14.907 5.536c-.265 1.65-.352 1.755.426 2.983 1.933-.2 3.122-1.138 3.409-2.983-.372-.624-.639-1.351-1.708-1.276.41 1.543-1.836.431-2.127 1.276z" transform="translate(-178.96 -75.574)"/><path d="M940.2 238.89c-1.796-3.357 2.057-6.54 4.259-8.519 4.959 2.232 1.338 8.738-4.259 8.519z" transform="translate(-178.96 -75.574)"/><path fill="#fff" d="M961.07 266.15c-.06-3.087-1.188-8.427-.852-10.649.281-1.889 2.605-6.93 3.833-9.371 4.192-8.337 9.476-10.903 18.317-15.759 12.41-6.82 30.48-7.293 41.742.425 2.834 4.563 8.106 8.907 7.241 15.76-3.907 4.755-11.416 5.908-16.188 9.795-4.668 1.507-7.35 2.508-9.795 4.688-4.915.748-9.262 2.786-14.482 3.407-1.961.232-3.903-.173-5.964 0-7.434.628-14.547 2.731-23.852 1.704zm34.075-29.817c4.112.705 5.522-1.295 7.668-2.556.348-1.472-.796-1.798 0-2.555-2.855-.871-8.959.816-7.668 5.111zm-11.926.853c1.473 1.439 2.997-.221 4.687-.853-.861-.767 1.573-2.089.424-3.407-3.097.026-5.055 1.192-5.111 4.26zm5.962 4.685c.728.173-.088.549 0 1.278.838-.127.848.574 1.28.852.08-.633 1.028-.392 1.703-.426.51-2.418 1.85-2.332 2.555-3.834-2.406-.821-3.946.946-5.538 2.13z" transform="translate(-178.96 -75.574)"/><path fill="#fff" d="M1023.7 287.88c2.945 2.418-1.946 11.457-2.982 15.333-3.14 11.752-2.772 22.013-5.538 34.077-1.258-.028-2.136.877-3.407 1.276-.986.312-2.488.091-3.406.426-.914.334-1.493 1.405-2.556 1.705-2.437.688-5.725.757-8.944 1.278-5.372.867-11.221 1.39-17.89 1.705-8.73.409-19.686-1.422-28.112-2.13-5.975-16.028-10.958-28.293-17.464-43.448 7.815 1.292 17.736 1.207 24.277 2.556.546-1.019 1.509-.771 2.131-.852 6.575-.858 13.592.51 19.592 0 7.677-.653 14.688-2.851 21.724-2.555 1.372-2.2 8.081-2.579 12.354-4.26 3.513-1.383 6.791-3.472 9.796-5.111h.425z" transform="translate(-178.96 -75.574)"/></g></g></svg>