<svg xmlns="http://www.w3.org/2000/svg" viewBox="0 0 16 16"><g fill-rule="evenodd" stroke-width=".057" clip-rule="evenodd"><path fill="#fff" d="M6.083 3.651c.037.169-.182.082-.198.199-.124-.065.052-.241.198-.199z"/><path d="M7.77 6.132c-.528-.671-.097-2.367 1.092-1.886.546.222.817 1.265.248 1.737-.102.084-.414.11-.546.149-.012.003-.198.15-.298.148-.149 0-.313-.089-.496-.148zm.943-.348c.392-.093.409-.832.05-1.091-.283.015-.324.065-.646.099-.308.591.105 1.109.596.992z"/><path fill="#fff" d="M8.118 4.792c.32-.034.363-.083.645-.1.36.26.342 1-.05 1.092-.491.117-.904-.4-.595-.992z"/><path d="M6.083 5.19h.248c-.103.098.053.113.1.198-.056.16-.29.173-.447.099.016-.116.06-.205.1-.298z"/><path d="M5.537 6.48c.085.525.02 1.133-.248 1.438-.016.018-.393.24-.446.248-.416.066-1.065-.246-1.19-.595-.04-.109-.075-.553-.05-.645.08-.303.766-.95 1.438-.794.184.042.323.256.496.347zm-.893.197c-.077-.021-.042-.156-.198-.099-.38.121-.476.896-.1 1.092.154.089.346-.099.348-.1.056-.02.074.078.149.05.056-.021.068-.13.149-.149.123-.028.208-.042.248-.1.164-.233-.02-.748-.149-.892-.152.036-.146-.086-.298-.05-.005.127-.009.255-.149.248z"/><path d="M12.136 7.471c-.386.73-1.77.817-1.984 0-.068-.258.062-.867.298-1.091.094-.09.408-.237.496-.248.153-.02.74.072.942.248.24.208.255.55.248 1.091zm-.545-.893c-.192-.02-.177-.054-.298.05-.493-.228-.672.277-.744.744.16.153.26.368.546.397.509-.226.932-.61.496-1.19z"/><path fill="#fff" d="M4.794 6.43c.151-.037.146.085.297.05.13.143.314.658.149.892-.04.057-.124.071-.248.1-.08.018-.093.127-.15.148-.074.028-.092-.07-.148-.05-.002.001-.193.189-.347.1-.377-.196-.281-.97.1-1.092.155-.056.12.078.198.1.139.006.143-.122.148-.249z"/><path d="M8.762 7.322c.186-.07.422.275.645.447-.014.345.125.6 0 .893-.285.67-1.227.648-1.438.149-.168-.397-.008-.958.446-1.34.078-.065.19-.092.347-.149zm-.297.844c-.1.16-.212.419-.149.595.42.309.851-.108.794-.595-.18-.226-.32.082-.645 0z"/><path d="M6.083 9.06c.119.253-.1.457-.446.396-.143-.357.073-.492.446-.397z"/><path fill="#fff" d="M3.106 4.495c-.246.278.252.407.397.595.632.033.865-.717.397-.893-.306-.116-.345.317-.744.149.266-.611.69-1.063 1.141-1.489.34.154 1.013-.073 1.24-.347.022-.272.046-.274.1-.546.45-.177 1.062-.195 1.538-.347v.496c.432.426 1.478.43 1.836.05.53.246 1.008.546 1.438.893-.034.602.085.745.298 1.091.333.01.47.078.893 0 .04-.007.174-.094.149-.099.361.069.893 1.025 1.19 1.439.102.141.264.146.249.347-.483.051-.41.65-.199.943.322.022.495.108.745-.149.225.072.257.304.397.496.223.308.626.61.545 1.042-.183-.031-.295-.135-.545-.1-.358.166-.502.542-.794.646-.035.362-.12.674-.199.992-.292.195-.54.25-.843.148 0-.224-.28-.573-.496-.743-.177.072-.352.005-.497.049-.17.052-.595.412-.694.595-.136.25-.124.625-.248.894-.015.031-.114.073-.15.149a1.74 1.74 0 01-.594.743h-.497c-.651-.66-.288-1.923-1.934-1.785-.553.313-.871.75-1.191 1.19-.47.18-.957.225-1.19-.247.102-.31.017-.817-.249-.943-.464-.222-1.192.416-1.786.297-.218-.043-.25-.221-.496-.297-.154-.402.06-.68-.1-1.042-.31-.477-1.023-.038-1.29-.348.026-.136.101-.234.2-.347.066-.078.15-.317.247-.446.158-.21.42-.26.397-.496.752.236 1.056-.382.844-.993-.075-.216-.286-.311-.298-.496.385-.243.439-.818.794-1.091zm5.607-1.638c-.287-.3-.667.192-.595.595.295.425 1.088.08.992-.496-.063-.02-.102-.064-.1-.148-.151-.036-.18.05-.297.05zm-2.382.199c-.177-.113-.686-.08-.843 0-.222.111-.26.325-.397.396-.172.856.742.969 1.34.745.12-.322.089-.645.05-.943-.07.054-.09-.16-.15-.198zM8.266 6.28c.1.001.286-.145.298-.148.132-.038.444-.065.546-.149.57-.472.298-1.515-.248-1.737-1.189-.48-1.62 1.215-1.092 1.886.183.059.347.147.496.148zm-2.282-.793c.157.074.39.06.447-.1-.047-.085-.203-.1-.1-.198h-.248c-.04.093-.083.182-.099.298zm-.942.645c-.673-.156-1.359.49-1.44.793-.024.093.011.537.05.646.126.349.775.661 1.191.595.054-.009.43-.23.447-.248.267-.305.333-.913.248-1.439-.174-.091-.313-.305-.496-.347zm6.846.247c-.202-.175-.79-.267-.942-.248a1.523 1.523 0 00-.497.248c-.235.225-.365.834-.297 1.092.214.817 1.598.729 1.984 0 .007-.541-.007-.883-.248-1.092zm-5.606.596c-.092.358-.116.49 0 .794.402.206.782-.033.843-.447-.181-.325-.338-.374-.843-.347zm2.133.496c-.454.382-.614.943-.446 1.34.21.499 1.153.522 1.439-.15.124-.292-.015-.547 0-.892-.224-.172-.46-.517-.645-.447-.157.057-.27.084-.348.149zM5.637 9.455c.346.061.565-.142.446-.396-.373-.096-.589.039-.446.396z"/><path d="M6.48 3.254c.04.298.072.621-.05.943-.597.224-1.511.11-1.339-.744.137-.072.175-.285.397-.397.156-.079.666-.112.843 0 .06.037.08.252.15.198zm-.595.596c.016-.117.235-.03.198-.199-.146-.042-.322.134-.198.199z"/><path d="M10.35 2.46c.77-.121 1.665.161 1.936.794.079.186-.066.4 0 .645.073.272.336.419.545.645.016.017.035.14.05.149.028.018.128-.024.149 0 .173.192.35.473.546.695.368.419.46 1.126.942 1.389.016.402.509.744.596 1.24.07.08.17.127.297.15-.044.114-.057.21 0 .396.706 1.088.214 2.896-.446 4.168-.106.204-.4.404-.645.595-.043.033.022.08-.05.099-.188.05-.328.253-.496.348-.49.274-1.021.263-1.389.744-.385.058-.722.173-1.091.298-.403.134-.75.189-1.24.297-.22.048-.442.173-.646.199-.394.049-.845-.126-1.29-.1-.099.006-.24.112-.496.1-.108-.006-.172-.077-.298-.1-.227-.04-.49.034-.694 0-.46-.075-.857-.381-1.29-.496-.21-.055-.345-.03-.596-.1-.158-.043-.435-.078-.595-.297-1.307-.23-2.11-.965-3.026-1.587-.224-.471-.607-.783-.645-1.44-.522-.774-.003-1.526 0-2.48C.444 8.696.35 8.64.279 8.563c.061-.727.449-1.4.893-1.786-.138-.64-.007-1.38.744-1.29.158-.154.322-.347.199-.645.162-.086.242-.254.198-.546.392-.782 1.157-1.192 1.489-2.034.216.002.272-.158.446-.198-.05-.33.206-.653.496-.794.604.239 1.226-.138 1.737-.298.087-.012.113-.085.1-.198.115.016.213.05.247.149.72-.405 1.455-.242 1.985.049.02.011.116.074.149.1.239.189.342.533.546.744.258.267.638.398.843.644zM8.466 1.32c-.056-.06-.35-.3-.396-.05-.14.04-.129-.07-.248-.05-.516.662.926 1.133.645.1zM2.313 5.585c.013.185.223.28.298.496.212.61-.091 1.228-.843.992.023.237-.24.286-.397.496-.097.13-.181.37-.248.447-.098.113-.174.21-.199.347.266.31.98-.129 1.29.347.158.362-.055.641.1 1.042.245.076.277.254.495.298.594.12 1.323-.52 1.786-.298.266.127.351.634.249.943.233.473.721.428 1.19.248.32-.44.638-.878 1.19-1.19 1.647-.138 1.284 1.125 1.936 1.785h.496a1.74 1.74 0 00.595-.744c.035-.076.134-.117.15-.148.123-.27.112-.644.247-.894.1-.183.524-.543.695-.595.144-.044.32.023.496-.05.217.171.495.52.496.744.303.103.552.046.843-.148.08-.318.165-.63.199-.993.292-.103.436-.48.794-.645.25-.035.362.068.546.1.08-.433-.323-.734-.546-1.042-.14-.192-.172-.424-.397-.496-.25.256-.423.17-.744.148-.212-.292-.284-.891.198-.942.015-.202-.146-.206-.248-.347-.298-.414-.83-1.37-1.19-1.439.025.005-.109.092-.15.1-.422.076-.56.01-.893 0-.213-.347-.332-.49-.297-1.092a6.98 6.98 0 00-1.439-.894c-.358.38-1.403.377-1.836-.05v-.495c-.476.152-1.087.17-1.538.347-.054.272-.078.274-.1.546-.227.274-.899.5-1.24.347-.45.425-.875.878-1.14 1.489.398.168.437-.265.744-.15.467.177.234.927-.397.894-.146-.189-.643-.317-.397-.596-.355.274-.408.849-.794 1.092zm2.332-3.324c.09-.007.116.05.1.149.366.006.314-.258.248-.546h-.15c-.095.102-.12.276-.198.397zm6.35.893c.005.313.06.52.447.545.187-.251-.021-.615-.297-.694-.049.05-.099.1-.15.149zM1.719 6.28c.046.218.103.426.347.447.182-.016.143-.254.347-.248-.064-.2-.078-.451-.297-.496-.01.222-.241.222-.397.297zm11.51.15c.137.059.207.107.347.049.007-.122.008-.24-.05-.298-.192-.01-.225.138-.297.248zm-12.205.942c-.206.278.083.142 0 0zm12.85 1.488c-.085.466-.092.793-.446 1.042.103.029-.072.188-.05.298-.282.272-.684.306-1.19.248-.197-.177-.459-.604-.695-.595-.18.006-.16.092-.348.198-.065.178.004.182-.05.348-.656.534-.725 1.655-2.033 1.538-.166-.248-.528-.3-.695-.546-.076-.436-.208-.89-.744-1.042-.746.204-1.176 1.282-2.084 1.29-.707.005-.974-.693-1.24-1.34-.833-.001-1.103.39-1.985.248-.214-.211-.452-.324-.595-.645-.163-.365-.076-.952-.546-.992-.162.113.016.257-.1.397.02.119-.225-.028-.148.148-.093.512-.304 1.01.199 1.29-.066.05-.185.048-.199.15.134.544.31 1.046.645 1.389.794.479 1.537 1.01 2.48 1.34-.06.16.161.037.1.198.581.16 1.176.484 1.786.595.192.035.425.162.645.198.646.106 1.447.153 2.084.2.76.053 1.328-.143 1.984-.2.085-.03.082-.15.15-.198.191.098.318-.069.396-.1.072-.027.175.027.248 0 .02-.006.01-.083.05-.099.353-.135.676-.172.992-.297.312-.124.54-.282.843-.497.249-.176.576-.33.794-.545.101-.1.142-.261.248-.397.104-.132.28-.232.347-.348.146-.251.289-.72.397-1.09.107-.365.207-.842.199-1.142-.013-.473-.3-.8-.496-1.24-.411-.148-.702-.053-.943.198zm-12.056.248c.12.255.128-.17 0 0zm9.823.347c-.317-.057-.109.152 0 0z"/><path d="M9.01 2.808c-.001.084.037.128.1.148.096.577-.697.922-.992.497-.072-.404.308-.897.595-.596.117.001.146-.085.298-.05z"/><path fill="#fff" d="M2.114 5.983c.22.045.233.296.298.496-.204-.006-.165.232-.347.248-.244-.02-.301-.229-.348-.447.156-.075.388-.075.397-.297z"/><path d="M7.125 7.322c-.061.414-.441.653-.843.447-.116-.305-.092-.436 0-.794.505-.027.662.022.843.347z"/><path fill="#fff" d="M14.816 8.662c.196.44.483.767.496 1.24.008.3-.092.777-.198 1.141-.109.37-.252.84-.397 1.092-.067.115-.244.215-.348.347-.106.136-.147.297-.248.397-.217.216-.545.37-.793.546-.303.215-.531.372-.844.496-.315.125-.64.162-.992.297-.04.016-.03.093-.05.1-.073.026-.176-.028-.248 0-.077.03-.205.197-.397.1-.067.048-.064.167-.148.198-.657.057-1.226.252-1.985.198-.637-.046-1.438-.092-2.084-.198-.22-.036-.453-.164-.645-.199-.61-.111-1.204-.435-1.786-.595.062-.161-.16-.038-.099-.199-.944-.33-1.686-.86-2.48-1.339-.336-.342-.512-.845-.646-1.39.014-.101.133-.098.199-.148-.503-.28-.291-.778-.199-1.29-.077-.176.169-.03.15-.149.114-.14-.063-.284.098-.397.47.04.384.627.546.992.143.32.382.434.596.645.882.141 1.15-.249 1.984-.247.266.647.533 1.345 1.24 1.34.909-.008 1.338-1.087 2.084-1.29.537.152.668.605.744 1.04.168.247.529.3.695.547 1.308.117 1.377-1.004 2.034-1.538.053-.166-.016-.17.05-.348.187-.106.167-.192.347-.198.237-.009.499.418.695.595.507.059.909.024 1.19-.248-.022-.11.154-.269.05-.298.355-.25.362-.576.446-1.041.241-.252.532-.347.943-.2z"/></g></svg>